<?xml version="1.0" encoding="UTF-8"?>
<svg width="586px" height="131px" viewBox="0 0 586 131" version="1.1" xmlns="http://www.w3.org/2000/svg" xmlns:xlink="http://www.w3.org/1999/xlink">
    <!-- Generator: Sketch 49.1 (51147) - http://www.bohemiancoding.com/sketch -->
    <title>checkout-btn-large copy 11</title>
    <desc>Created with Sketch.</desc>
    <defs>
        <path d="M0,7.00897254 C0,3.13802389 3.13131881,-4.00815584e-18 6.99307755,-1.88186128e-18 L575.006922,3.10868061e-16 C578.869093,3.12994582e-16 582,3.13934326 582,7.00897254 L582,119.991027 C582,123.861976 578.868681,127 575.006922,127 L6.99307755,127 C3.13090747,127 0,123.860657 0,119.991027 L0,7.00897254 Z" id="path-1"></path>
    </defs>
    <g id="Page-2" stroke="none" stroke-width="1" fill="none" fill-rule="evenodd">
        <g id="Payment-Mark-Copy" transform="translate(-96.000000, -761.000000)">
            <g id="checkout-btn-large-copy-11" transform="translate(98.000000, 763.000000)">
                <mask id="mask-2" fill="white">
                    <use xlink:href="#path-1"></use>
                </mask>
                <g id="Mask">
                    <use fill="#2A3F90" fill-rule="evenodd" xlink:href="#path-1"></use>
                    <path stroke="#2A3F90" stroke-width="1.40600002" d="M-0.703000009,7.00897254 C-0.703000009,2.75026056 2.74256923,-0.703000009 6.99307755,-0.703000009 L575.006922,-0.703000009 C579.257272,-0.703000009 582.703,2.75100866 582.703,7.00897254 L582.703,119.991027 C582.703,124.249739 579.257431,127.703 575.006922,127.703 L6.99307755,127.703 C2.74272761,127.703 -0.703000009,124.248991 -0.703000009,119.991027 L-0.703000009,7.00897254 Z"></path>
                </g>
                <g id="bitpay-logo-primary-copy" mask="url(#mask-2)">
                    <g transform="translate(57.000000, 34.000000)" id="Group">
                        <g>
                            <path d="M173.91532,14.7034435 L164.871616,14.7034435 L159.638204,37.0843179 L158.90369,40.1552903 C158.398712,40.2948799 157.893734,40.4344696 157.388755,40.5275294 C156.470613,40.7136489 155.506563,40.8067087 154.496607,40.8067087 C153.348928,40.8067087 152.430786,40.6205891 151.742179,40.2948799 C151.099479,39.9691707 150.594501,39.5038719 150.319058,38.8524535 C150.043616,38.247565 149.951801,37.5030869 149.997708,36.6655489 C150.043616,35.828011 150.227244,34.8974133 150.45678,33.9668157 L153.211207,22.3343445 L155.001585,14.6103837 L145.774253,14.6103837 L141.596705,32.4778593 C141.091727,34.618234 140.816284,36.6655489 140.72447,38.6198041 C140.632655,40.5740592 140.954005,42.2491351 141.596705,43.7846213 C142.239405,45.2735776 143.387083,46.4368247 144.947925,47.3208925 C146.508767,48.2049603 148.758216,48.6237293 151.604458,48.6237293 C153.578464,48.6237293 155.322935,48.4376097 156.791963,48.1119005 C156.83787,48.1119005 156.929684,48.0653706 156.975591,48.0653706 L156.975591,48.0653706 C156.562427,49.926566 155.736099,51.4155223 154.450699,52.5787694 C153.119393,53.7420165 151.191294,54.346905 148.620495,54.346905 C147.518724,54.346905 146.508767,54.3003752 145.590625,54.1607855 L143.800247,61.7451567 C144.993832,61.8847463 146.325139,61.9778061 147.794167,61.9778061 C150.548594,61.9778061 152.935764,61.6520969 155.001585,61.0472084 C157.067405,60.39579 158.811876,59.4651923 160.326811,58.1623556 C161.795839,56.8595188 163.035332,55.2309728 164.045288,53.3232476 C165.055245,51.3689924 165.835666,49.0890281 166.432459,46.3902948 L172.675827,19.7752009 L172.675827,19.7752009 L173.91532,14.7034435 L173.91532,14.7034435 Z" id="y_2_" fill="#FFFFFF"></path>
                            <path d="M136.041943,33.827226 C135.491058,36.1537202 135.307429,38.5267443 135.536965,40.8532385 C135.7665,43.2262627 136.684643,46.8090638 137.556878,48.6237293 L128.834525,48.6237293 C127.778661,46.8090638 127.824568,45.924996 127.595032,45.3666373 C126.447354,46.297235 125.207862,47.0882431 123.830648,47.6931316 C122.453434,48.2980201 120.938499,48.6237293 119.194029,48.6237293 C117.174115,48.6237293 115.429645,48.2514902 114.006524,47.5535419 C112.583403,46.8555936 111.389818,45.8784661 110.471675,44.6686891 C109.553533,43.4589121 108.910833,42.0630155 108.497669,40.4344696 C108.084505,38.8059236 107.900876,37.0843179 107.900876,35.2231225 C107.900876,32.3847996 108.405855,29.7325962 109.369904,27.2199824 C110.379861,24.7073686 111.757075,22.5204641 113.501545,20.6592687 C115.246016,18.7980733 119.515379,14.6569136 126.493261,14.6569136 L140.494934,14.6569136 L136.041943,33.827226 L136.041943,33.827226 Z M129.660853,22.4274043 C125.437398,22.4274043 124.656976,22.4274043 122.912506,23.3114721 C121.673013,23.9628905 120.663057,24.9400181 119.790821,26.0567353 C118.918586,27.1734525 118.184072,28.4762893 117.679094,29.9652456 C117.174115,31.4542019 116.898673,32.9896881 116.898673,34.5717041 C116.898673,36.5259593 117.220022,38.1079754 117.862722,39.2712225 C118.505422,40.4344696 119.699007,40.9928282 121.443478,40.9928282 C122.36162,40.9928282 123.233856,40.8067087 123.96837,40.4344696 C124.702884,40.0622305 125.529212,39.457342 126.35554,38.5732742 C126.447354,37.5496168 126.585076,36.4794294 126.768704,35.3627122 C126.952333,34.245995 127.181868,33.1758076 127.365497,32.2452099 L129.660853,22.4274043 L129.660853,22.4274043 Z" id="a_2_" fill="#FFFFFF"></path>
                            <path d="M105.421892,28.1505801 C105.421892,31.1750226 104.916913,33.9202858 103.952864,36.4328995 C102.988814,38.9455133 101.6116,41.085888 99.8671298,42.9005535 C98.1226591,44.715219 96.0568386,46.1111155 93.623761,47.134773 C91.1906835,48.1584304 88.5739775,48.6702591 85.7277358,48.6702591 C84.3505221,48.6702591 82.9733084,48.5306695 81.5501876,48.2980201 L78.7957602,59.5117222 L69.7520569,59.5117222 L80.2647882,14.7499734 L92.3383616,14.7499734 C94.6337178,14.7499734 96.6077241,15.1222124 98.2144734,15.8201607 C99.8671298,16.518109 101.198436,17.4952366 102.300207,18.7050136 C103.356071,19.9147905 104.136492,21.357217 104.641471,22.9857629 C105.192356,24.567779 105.421892,26.2893847 105.421892,28.1505801 L105.421892,28.1505801 Z M83.2487512,40.8532385 C83.937358,41.0393581 84.8095934,41.085888 85.8195501,41.085888 C87.4262994,41.085888 88.8494202,40.8067087 90.1807268,40.2018202 C91.4661262,39.5969317 92.6138043,38.7593937 93.5319468,37.6892064 C94.4500893,36.6190191 95.1386961,35.3161823 95.6895816,33.827226 C96.1945599,32.3382697 96.4700027,30.6631939 96.4700027,28.8485284 C96.4700027,27.0803928 96.1027457,25.5449066 95.3223246,24.3351296 C94.5419035,23.0788227 93.2105969,22.4274043 91.2824977,22.4274043 L87.7017421,22.4274043 L83.2487512,40.8532385 L83.2487512,40.8532385 Z" id="p_2_" fill="#FFFFFF"></path>
                            <path d="M64.2432021,40.8532385 C63.095524,40.8532385 62.1773816,40.667119 61.4887747,40.3414098 C60.846075,40.0157006 60.3410966,39.5504018 60.0656539,38.8989834 C59.7902111,38.2940949 59.6983969,37.5496168 59.744304,36.7120788 C59.7902111,35.8745409 59.9738396,34.9439432 60.2033753,34.0133455 L62.9578027,22.3808744 L73.2409983,22.3808744 L75.1231903,14.6569136 L64.7940876,14.6569136 L67.181258,4.88563787 L57.5407621,6.42112405 L51.4351147,32.5709191 C50.9301363,34.7112938 50.6546936,36.7586087 50.5628794,38.7128639 C50.4710651,40.667119 50.792415,42.3421949 51.4351147,43.877681 C52.0778144,45.3666373 53.2254925,46.5298845 54.7863347,47.4139523 C56.3471769,48.2980201 58.5966259,48.716789 61.4428676,48.716789 C63.4168739,48.716789 65.1613446,48.5306695 66.6303725,48.2049603 C66.7680939,48.1584304 66.9976295,48.1119005 67.1353509,48.0653706 L69.0175429,40.1087604 C68.3748432,40.3414098 67.7321435,40.4809995 67.1353509,40.5740592 C66.2172084,40.7601788 65.2531588,40.8532385 64.2432021,40.8532385 L64.2432021,40.8532385 Z" id="t_2_" fill="#FFFFFF"></path>
                            <polygon id="i_bottom_6_" fill="#FFFFFF" points="41.2437333 14.7034435 33.2558939 48.6702591 42.2995972 48.6702591 50.2415295 14.7034435"></polygon>
                            <polygon id="i_top_2_" fill="#FFFFFF" points="51.2055791 10.7949332 52.5827928 4.88563787 43.5390895 4.88563787 42.1618758 10.7949332"></polygon>
                            <path d="M21.2282276,14.7499734 C23.1563267,14.7499734 24.8548903,15.1222124 26.2780111,15.8201607 C27.7011319,16.518109 28.84881,17.4487067 29.8128596,18.6584837 C30.7310021,19.8682607 31.4196089,21.2641572 31.8786802,22.8461733 C32.3377514,24.4281893 32.567287,26.1497951 32.567287,28.0109904 C32.567287,30.8493134 32.0623087,33.5015168 31.0064448,36.0606605 C29.950581,38.5732742 28.5733673,40.8067087 26.7829895,42.667904 C24.9926117,44.5290994 22.880884,46.0180557 20.4478065,47.0882431 C18.0147289,48.1584304 15.3980229,48.716789 12.5517813,48.716789 C12.1845243,48.716789 11.5418245,48.716789 10.6236821,48.6702591 C9.7055396,48.6702591 8.64967577,48.5771994 7.50199769,48.3910798 C6.30841248,48.2049603 5.06892015,47.9723109 3.7835207,47.6466017 C2.45221412,47.3208925 1.21272179,46.8555936 0.0650437073,46.297235 L10.5777749,1.53548619 L19.9887352,0.0465298845 L16.2702582,15.9132205 C17.0965865,15.5409814 17.8311004,15.2618021 18.6574287,15.0756826 C19.4378497,14.8430331 20.3100851,14.7499734 21.2282276,14.7499734 L21.2282276,14.7499734 Z M13.3322023,41.085888 C14.7553232,41.085888 16.0866297,40.7601788 17.3261221,40.0157006 C18.5656144,39.3177524 19.6673854,38.3871547 20.5855278,37.2239076 C21.5036703,36.0606605 22.2381843,34.7112938 22.7431626,33.2688674 C23.248141,31.7799111 23.5235837,30.2444249 23.5235837,28.6624088 C23.5235837,26.7081537 23.2022339,25.1726675 22.5595341,24.0559503 C21.9168344,22.939233 20.5855278,22.4274043 18.8410571,22.4274043 C18.2901717,22.4274043 17.6933791,22.4739342 16.7752366,22.7065836 C15.8570941,22.8927032 15.076673,23.358002 14.3421591,24.0094204 L10.3941465,40.8997684 C11.5877317,41.085888 11.9549886,41.1324179 12.2763385,41.1324179 C12.5058741,41.085888 12.8731311,41.085888 13.3322023,41.085888 L13.3322023,41.085888 Z" id="b_2_" fill="#FFFFFF"></path>
                        </g>
                    </g>
                </g>
                <polygon id="Rectangle-52" fill="#FFFFFF" mask="url(#mask-2)" points="308.954774 77.1972656 296.749023 63.5 308.954774 48.6972656 308.954774 0 582 0 582 127 308.954774 127"></polygon>
                <g id="Imported-Layers-+-Imported-Layers" transform="translate(348.000000, 34.000000)">
                    <g id="Imported-Layers" fill="#F7931A">
                        <path d="M23.895642,60.4836781 C7.04615085,56.4384479 -3.2386035,40.0046999 0.962828067,23.7816411 C5.16425963,7.55858225 22.2325754,-2.34380432 39.0820665,1.70142594 C55.9753226,5.70451838 66.260077,22.1804041 62.0586454,38.403463 C57.8572138,54.6265218 40.7888981,64.5289084 23.895642,60.4836781 Z" id="Fill-1-Copy"></path>
                    </g>
                    <path d="M42.1307626,32.4882701 C43.3796008,31.5950717 44.3292524,30.2923747 44.6987061,28.6920949 C45.8616805,23.6546994 43.4667746,19.9182582 38.3122905,18.7282518 L38.3155894,18.7290134 L39.7078598,12.6833771 C39.7592632,12.4607242 39.7327203,12.5352458 39.7936602,12.2712863 L36.9143866,11.6139818 C36.6921253,11.5626688 36.5168515,11.5147754 36.5168515,11.5147754 L35.0167195,17.9674092 L31.7178497,17.2058051 L33.1101201,11.1601689 C33.1615236,10.937516 33.1488365,10.988707 33.2039615,10.7499345 L29.9092152,9.98928235 C29.8263184,10.3483479 29.8766325,10.1708619 29.8181776,10.3836097 L28.4189798,16.444201 L20.9804131,14.7213544 C20.9804131,14.7213544 20.9501662,14.9106893 20.8980109,15.1318952 L20.234993,17.9501235 L21.0724936,18.1434757 C22.8942945,18.5640716 24.0381015,20.3485959 23.6270599,22.129013 L20.6543813,35.0257928 C20.2653431,36.7109024 19.9102951,38.1631841 17.7454118,37.6633814 C17.569747,37.622826 16.3492795,37.3480626 15.786616,37.2181615 L15.1474452,39.9867141 C15.1066056,40.1485596 15.0225418,40.5277304 15.0225418,40.5277304 C15.0225418,40.5277304 15.4405253,40.6136177 15.5675318,40.6429395 L22.464644,42.2352633 L20.9727378,48.682368 L24.2716077,49.4439721 L24.3646456,49.0409804 L25.7635138,42.9968674 L29.0623836,43.7584715 L27.5741366,50.2499293 L30.427659,50.9087168 L30.8509453,51.0064401 L32.3612535,44.5200756 L34.0073895,44.9001161 C39.1618737,46.0901225 42.9523488,43.781689 44.1153232,38.7442935 C44.6601069,36.3845759 43.8117985,34.0519407 42.1307626,32.4882701 L42.1307626,32.4882701 Z M30.6469948,22.0287344 L35.5952996,23.1711405 C37.4171004,23.5917364 38.5609075,25.3762607 38.1498658,27.1566778 C37.7388241,28.9370949 35.9284932,30.0396027 34.1066923,29.6190068 L29.1583876,28.4766007 L30.6469948,22.0287344 L30.6469948,22.0287344 Z M33.425904,39.6634517 L26.8281643,38.1402435 L28.3167715,31.6923772 L34.9145112,33.2155854 C36.7363121,33.6361813 37.8801191,35.4207056 37.4690774,37.2011227 C37.0580358,38.9815398 35.2477049,40.0840476 33.425904,39.6634517 L33.425904,39.6634517 Z" id="Imported-Layers" fill="#FFFFFF"></path>
                </g>
                <g id="bitcoin-cash" transform="translate(456.000000, 36.000000)" fill-rule="nonzero">
                    <g id="Rectangle" fill="#FFFFFF">
                        <polygon id="path0_fill" points="0 0.280645161 90.8462838 0.280645161 90.8462838 57.8752688 0 57.8752688"></polygon>
                    </g>
                    <g id="Vector" fill="#2FCF6E">
                        <path d="M0,0.280645161 L25.9472973,0.280645161 C21.4280405,3.52365591 17.7695946,7.82688172 15.2179054,12.8473118 C12.6662162,17.8677419 11.3442568,23.4182796 11.3442568,29.0623656 C11.3442568,34.7064516 12.6662162,40.288172 15.2179054,45.3086022 C17.7695946,50.3290323 21.4280405,54.6322581 25.9472973,57.8752688 L0,57.8752688 L0,0.280645161 Z M45.4077703,0.280645161 C37.9986486,0.280645161 30.8969595,3.30537634 25.6398649,8.7 C20.4135135,14.0946237 17.4621622,21.4225806 17.4621622,29.0623656 C17.4621622,36.7021505 20.4135135,44.0301075 25.6398649,49.4247312 C30.8662162,54.8193548 37.9986486,57.844086 45.4077703,57.844086 C52.8168919,57.844086 59.9185811,54.8193548 65.1756757,49.4247312 C70.402027,44.0301075 73.3533784,36.7021505 73.3533784,29.0623656 C73.3533784,21.4225806 70.402027,14.0946237 65.1756757,8.7 C59.9493243,3.30537634 52.8168919,0.280645161 45.4077703,0.280645161 Z M90.8462838,0.280645161 L64.8989865,0.280645161 C69.4182432,3.52365591 73.0766892,7.82688172 75.6283784,12.8473118 C78.1800676,17.8677419 79.502027,23.4182796 79.502027,29.0935484 C79.502027,34.7376344 78.1800676,40.3193548 75.6283784,45.3397849 C73.0766892,50.3602151 69.4182432,54.6634409 64.8989865,57.9064516 L90.8462838,57.9064516 L90.8462838,0.280645161 Z" id="path1_fill"></path>
                    </g>
                    <g id="Vector_1_" transform="translate(30.062500, 11.436620)" fill="#FFFFFF">
                        <path d="M23.5450269,8.68130819 C22.2913306,5.11740272 18.8665995,4.69095249 14.8608871,5.33062783 L13.6071909,0.274146574 L10.5493952,1.03566484 L11.7725134,5.97030317 C10.9774866,6.18352829 10.1518817,6.3967534 9.35685484,6.60997852 L8.13373656,1.64487945 L5.07594086,2.40639771 L6.3296371,7.46287897 C5.6875,7.64564335 5.01478495,7.82840773 4.40322581,7.98071139 L4.40322581,7.95025066 L0.183467742,9.01637622 L1.00907258,12.3061351 C1.00907258,12.3061351 3.24126344,11.6969205 3.21068548,11.757842 C4.43380376,11.4532347 5.01478495,12.0624493 5.28998656,12.6716639 L6.72715054,18.4592027 C6.84946237,18.4287419 6.94119624,18.3982812 7.06350806,18.3982812 L6.72715054,18.4896634 L8.71471774,26.5922177 C8.7452957,26.9882072 8.68413978,27.688804 7.82795699,27.9020291 C7.8891129,27.9324899 5.59576613,28.4503223 5.59576613,28.4503223 L5.9015457,32.2883743 L9.87668011,31.2831702 C10.6105511,31.1004058 11.344422,30.9176414 12.0477151,30.7653378 L13.3014113,35.8827405 L16.359207,35.1212222 L15.1055108,30.0342803 C15.9616935,29.8515159 16.7567204,29.6382908 17.5517473,29.4555264 L18.8054435,34.5120076 L21.8632392,33.7504894 L20.609543,28.6330867 C25.6549059,27.0491287 28.9267473,24.8254953 28.1622984,19.8299355 C27.5507392,15.8091191 25.2879704,14.5297684 22.1995968,14.5602292 C23.7590726,13.1894963 24.4623656,11.300931 23.5450269,8.68130819 Z M21.9855511,20.7132967 C22.9334677,24.5513488 16.328629,25.7393173 14.2799059,26.2571497 L12.5981183,19.4644068 C14.6774194,18.9770351 21.0070565,16.7534018 21.9855511,20.7132967 Z M18.2244624,11.5141561 C19.0806452,14.9866794 13.5766129,15.9614228 11.8642473,16.387873 L10.3353495,10.2348054 C12.0477151,9.77789449 17.3071237,7.85886847 18.2244624,11.5141561 Z" id="path2_fill"></path>
                    </g>
                </g>
            </g>
        </g>
    </g>
</svg>