<?xml version="1.0" encoding="UTF-8"?>
<svg width="113px" height="75px" viewBox="0 0 113 75" version="1.1" xmlns="http://www.w3.org/2000/svg" xmlns:xlink="http://www.w3.org/1999/xlink">
    <!-- Generator: Sketch 64 (93537) - https://sketch.com -->
    <title>BitPay-Accepted-Card-DarkMode</title>
    <desc>Created with Sketch.</desc>
    <defs>
        <path d="M0,4.00581045 C0,1.79346243 1.79777584,0 4.00511847,0 L108.994882,0 C111.206847,0 113,1.79833109 113,4.00581045 L113,70.9941896 C113,73.2065376 111.202224,75 108.994882,75 L4.00511847,75 C1.79315262,75 0,73.2016689 0,70.9941896 L0,4.00581045 Z" id="path-1"></path>
    </defs>
    <g id="BitPay-Accepted-Card-DarkMode" stroke="none" stroke-width="1" fill="none" fill-rule="evenodd">
        <g id="Mark/Large/Card/BitPay-Accepted-Card-DarkMode">
            <mask id="mask-2" fill="white">
                <use xlink:href="#path-1"></use>
            </mask>
            <path stroke="#FFFFFF" stroke-width="2" d="M108.994882,1 L4.00511847,1 C3.17656161,1 2.42510288,1.33709685 1.88083559,1.88145818 C1.33710949,2.42527822 1,3.17623059 1,4.00581045 L1,70.9941896 C1,71.8229097 1.33708328,72.5746039 1.88143773,73.1190524 C2.42509385,73.6628024 3.17579404,74 4.00511847,74 L108.994882,74 C109.823438,74 110.574897,73.6629031 111.119164,73.1185418 C111.662891,72.5747218 112,71.8237694 112,70.9941896 L112,4.00581045 C112,3.17709031 111.662917,2.42539612 111.118562,1.88094762 C110.574906,1.33719757 109.824206,1 108.994882,1 Z"></path>
            <g id="Logo/Interface/bitpay-logo-white-(160x58)" mask="url(#mask-2)" fill-rule="evenodd" stroke-width="1">
                <g transform="translate(13.721429, 23.387097)" id="Group">
                    <g>
                        <path d="M87.9371829,7.56343947 L83.3643955,7.56343947 L80.7182139,19.0761432 L80.34682,20.6558489 C80.0914867,20.7276537 79.8361534,20.7994585 79.5808201,20.8473284 C79.1165777,20.9430682 78.6291232,20.990938 78.1184566,20.990938 C77.5381536,20.990938 77.0739112,20.8951983 76.7257294,20.7276537 C76.4007598,20.5601092 76.1454265,20.3207598 76.0061538,19.9856708 C75.866881,19.6745166 75.8204568,19.2915576 75.8436689,18.8607288 C75.866881,18.4299 75.9597295,17.9512013 76.0757901,17.4725026 L77.4685173,11.4887688 L78.3737899,7.5155696 L73.708154,7.5155696 L71.5958511,16.7065847 C71.3405178,17.8075917 71.2012451,18.8607288 71.1548209,19.8659961 C71.1083966,20.8712634 71.2708815,21.732921 71.5958511,22.5227739 C71.9208208,23.2886918 72.5011238,23.8870652 73.2903358,24.3418289 C74.0795479,24.7965927 75.2169417,25.0120071 76.6560931,25.0120071 C77.6542142,25.0120071 78.5362747,24.9162674 79.2790625,24.7487228 C79.3022747,24.7487228 79.3486989,24.7247879 79.371911,24.7247879 L79.371911,24.7247879 C79.1630019,25.6821853 78.7451838,26.4481032 78.0952445,27.0464766 C77.422093,27.64485 76.447184,27.9560041 75.1473053,27.9560041 C74.5902145,27.9560041 74.0795479,27.9320692 73.6153055,27.8602644 L72.7100329,31.7616588 C73.3135479,31.8334636 73.9866994,31.8813335 74.7294872,31.8813335 C76.1222143,31.8813335 77.3292445,31.7137889 78.3737899,31.4026348 C79.4183352,31.0675457 80.3003958,30.588847 81.0663957,29.9186688 C81.8091835,29.2484906 82.4359107,28.4107679 82.9465773,27.4294356 C83.457244,26.4241683 83.85185,25.2513565 84.1536075,23.8631302 L87.3104557,10.1723474 L87.3104557,10.1723474 L87.9371829,7.56343947 L87.9371829,7.56343947 Z" id="y_2_" fill="#FFFFFF"></path>
                        <path d="M68.7871847,17.4006978 C68.5086393,18.5974445 68.4157908,19.8181262 68.5318514,21.014873 C68.647912,22.2355547 69.1121544,24.0785446 69.5531847,25.0120071 L65.142882,25.0120071 C64.6090033,24.0785446 64.6322154,23.6237809 64.5161548,23.3365617 C63.9358519,23.8152604 63.3091246,24.2221543 62.6127611,24.5333084 C61.9163975,24.8444626 61.1503976,25.0120071 60.2683371,25.0120071 C59.2470038,25.0120071 58.3649433,24.8205276 57.6453676,24.4615036 C56.9257919,24.1024796 56.3222768,23.5998459 55.8580344,22.9775376 C55.3937921,22.3552293 55.0688224,21.6371813 54.8599133,20.7994585 C54.6510043,19.9617358 54.5581558,19.0761432 54.5581558,18.1187458 C54.5581558,16.6587148 54.8134891,15.2944235 55.3009436,14.001937 C55.8116102,12.7094505 56.5079738,11.5845086 57.3900343,10.6271112 C58.2720948,9.66971376 60.4308219,7.53950454 63.959064,7.53950454 L71.0387603,7.53950454 L68.7871847,17.4006978 L68.7871847,17.4006978 Z M65.5607002,11.5366387 C63.4251852,11.5366387 63.0305792,11.5366387 62.1485187,11.9914025 C61.5217915,12.3264915 61.0111249,12.8291252 60.5700946,13.4035636 C60.1290643,13.9780021 59.7576704,14.6481802 59.5023371,15.4140982 C59.2470038,16.1800161 59.1077311,16.9698689 59.1077311,17.7836567 C59.1077311,18.788924 59.2702159,19.6027118 59.5951856,20.2010852 C59.9201553,20.7994585 60.5236704,21.0866778 61.4057309,21.0866778 C61.8699733,21.0866778 62.3110035,20.990938 62.6823974,20.7994585 C63.0537913,20.6079791 63.4716095,20.2968249 63.8894276,19.8420611 C63.9358519,19.3154926 64.0054882,18.7649891 64.0983367,18.1905506 C64.1911852,17.6161122 64.3072458,17.0656087 64.4000942,16.58691 L65.5607002,11.5366387 L65.5607002,11.5366387 Z" id="a_2_" fill="#FFFFFF"></path>
                        <path d="M53.3047013,14.4806357 C53.3047013,16.0364065 53.049368,17.4485676 52.5619135,18.7410541 C52.074459,20.0335406 51.3780955,21.1345476 50.4960349,22.0680101 C49.6139744,23.0014726 48.5694291,23.7195206 47.3391868,24.2460892 C46.1089445,24.7726578 44.7858537,25.0359421 43.3467023,25.0359421 C42.6503387,25.0359421 41.9539751,24.9641372 41.2343995,24.8444626 L39.8416723,30.6127819 L35.2688849,30.6127819 L40.5844601,7.58737441 L46.6892474,7.58737441 C47.8498534,7.58737441 48.8479745,7.77885389 49.6603987,8.13787791 C50.4960349,8.49690194 51.1691864,8.99953557 51.7262773,9.62184389 C52.260156,10.2441522 52.654762,10.9861352 52.9100953,11.8238579 C53.1886408,12.6376457 53.3047013,13.5232383 53.3047013,14.4806357 L53.3047013,14.4806357 Z M42.0932479,21.014873 C42.4414296,21.1106127 42.8824599,21.1345476 43.3931265,21.1345476 C44.2055507,21.1345476 44.9251264,20.990938 45.5982778,20.6797839 C46.2482172,20.3686297 46.8285201,19.9378009 47.2927625,19.3872974 C47.7570049,18.8367939 48.1051867,18.1666157 48.3837321,17.4006978 C48.6390654,16.6347799 48.7783381,15.7731222 48.7783381,14.8396597 C48.7783381,13.9301322 48.5926412,13.1402793 48.1980352,12.517971 C47.8034291,11.8717278 47.1302777,11.5366387 46.1553687,11.5366387 L44.3448234,11.5366387 L42.0932479,21.014873 L42.0932479,21.014873 Z" id="p_2_" fill="#FFFFFF"></path>
                        <path d="M32.4834306,21.014873 C31.9031276,21.014873 31.4388852,20.9191332 31.0907034,20.7515887 C30.7657338,20.5840441 30.5104005,20.3446948 30.3711278,20.0096057 C30.231855,19.6984515 30.1854308,19.3154926 30.2086429,18.8846637 C30.231855,18.4538349 30.3247035,17.9751362 30.4407641,17.4964375 L31.8334913,11.5127038 L37.0330059,11.5127038 L37.9847028,7.53950454 L32.761976,7.53950454 L33.9690062,2.51316818 L29.0944612,3.30302104 L26.0072494,16.7544545 C25.7519161,17.8554615 25.6126434,18.9085987 25.5662191,19.913866 C25.5197949,20.9191332 25.6822797,21.7807909 26.0072494,22.5706437 C26.332219,23.3365617 26.912522,23.934935 27.7017341,24.3896988 C28.4909461,24.8444626 29.6283399,25.059877 31.0674913,25.059877 C32.0656124,25.059877 32.947673,24.9641372 33.6904608,24.7965927 C33.7600971,24.7726578 33.8761577,24.7487228 33.9457941,24.7247879 L34.897491,20.631914 C34.5725213,20.7515887 34.2475516,20.8233935 33.9457941,20.8712634 C33.4815517,20.9670031 32.9940972,21.014873 32.4834306,21.014873 L32.4834306,21.014873 Z" id="t_2_" fill="#FFFFFF"></path>
                        <polygon id="i_bottom_6_" fill="#FFFFFF" points="20.854159 7.56343947 16.8152502 25.0359421 21.3880377 25.0359421 25.4037343 7.56343947"></polygon>
                        <polygon id="i_top_2_" fill="#FFFFFF" points="25.8911888 5.55290493 26.5875524 2.51316818 22.0147649 2.51316818 21.3184013 5.55290493"></polygon>
                        <path d="M10.7336751,7.58737441 C11.7085841,7.58737441 12.5674325,7.77885389 13.2870082,8.13787791 C14.0065838,8.49690194 14.5868868,8.97560064 15.0743413,9.59790895 C15.5385837,10.2202173 15.8867655,10.9382653 16.1188867,11.7520531 C16.3510079,12.5658409 16.4670685,13.4514335 16.4670685,14.4088309 C16.4670685,15.8688619 16.2117352,17.2331532 15.6778564,18.5495747 C15.1439777,19.8420611 14.4476141,20.990938 13.5423415,21.9483354 C12.6370688,22.9057328 11.5693113,23.6716508 10.339069,24.2221543 C9.10882673,24.7726578 7.78573595,25.059877 6.34658457,25.059877 C6.16088761,25.059877 5.83591795,25.059877 5.37167557,25.0359421 C4.90743319,25.0359421 4.37355445,24.9880722 3.79325147,24.8923324 C3.18973638,24.7965927 2.56300917,24.676918 1.91306983,24.5093735 C1.23991838,24.3418289 0.613191167,24.1024796 0.0328881918,23.8152604 L5.34846345,0.789852856 L10.1069478,0.023934935 L8.22676621,8.18574778 C8.64458435,7.9942683 9.01597825,7.85065869 9.4337964,7.75491895 C9.82840242,7.63524428 10.2694327,7.58737441 10.7336751,7.58737441 L10.7336751,7.58737441 Z M6.74119059,21.1345476 C7.46076628,21.1345476 8.13391773,20.9670031 8.76064494,20.5840441 C9.38737216,20.2250201 9.94446301,19.7463214 10.4087054,19.147948 C10.8729478,18.5495747 11.2443417,17.8554615 11.499675,17.1134786 C11.7550083,16.3475606 11.894281,15.5577078 11.894281,14.74392 C11.894281,13.7386527 11.7317962,12.9487999 11.4068265,12.3743614 C11.0818568,11.799923 10.4087054,11.5366387 9.52664487,11.5366387 C9.24809944,11.5366387 8.9463419,11.5605736 8.48209952,11.6802483 C8.01785714,11.775988 7.62325111,12.0153374 7.25185721,12.3504265 L5.25561497,21.0388079 C5.85913007,21.1345476 6.04482702,21.1584826 6.20731185,21.1584826 C6.32337245,21.1345476 6.5090694,21.1345476 6.74119059,21.1345476 L6.74119059,21.1345476 Z" id="b_2_" fill="#FFFFFF"></path>
                    </g>
                </g>
            </g>
        </g>
    </g>
</svg>