<?xml version="1.0" encoding="UTF-8"?>
<svg width="284px" height="60px" viewBox="0 0 284 60" version="1.1" xmlns="http://www.w3.org/2000/svg" xmlns:xlink="http://www.w3.org/1999/xlink">
    <!-- Generator: Sketch 64 (93537) - https://sketch.com -->
    <title>Pay-with-BitPay-CardGroup</title>
    <desc>Created with Sketch.</desc>
    <defs>
        <path d="M5.30459007,-1.574563e-15 L279.178169,-1.59114932e-14 C281.02269,9.24503576e-15 281.691558,0.192052989 282.365888,0.552688353 C283.040217,0.913323717 283.569435,1.44254146 283.93007,2.11687096 C284.290706,2.79120046 284.482759,3.46006854 284.482759,5.30459007 L284.482759,54.6954099 C284.482759,56.5399315 284.290706,57.2087995 283.93007,57.883129 C283.569435,58.5574585 283.040217,59.0866763 282.365888,59.4473116 C281.691558,59.807947 281.02269,60 279.178169,60 L5.30459007,60 C3.46006854,60 2.79120046,59.807947 2.11687096,59.4473116 C1.44254146,59.0866763 0.913323717,58.5574585 0.552688353,57.883129 C0.192052989,57.2087995 2.07748502e-15,56.5399315 -3.57552849e-15,54.6954099 L5.96291595e-16,5.30459007 C-3.46462589e-16,3.46006854 0.192052989,2.79120046 0.552688353,2.11687096 C0.913323717,1.44254146 1.44254146,0.913323717 2.11687096,0.552688353 C2.79120046,0.192052989 3.46006854,9.14866445e-16 5.30459007,-1.574563e-15 Z" id="path-1"></path>
        <path d="M84.8275862,57.347705 C84.8275862,58.2699657 84.7315597,58.6043998 84.551242,58.9415645 C84.3709243,59.2787293 84.1063155,59.5433381 83.7691507,59.7236558 C83.431986,59.9039735 83.0975519,60 82.1752912,60 L3.68677779,60 C2.76451703,60 2.43008299,59.9039735 2.09291824,59.7236558 C1.75575349,59.5433381 1.49114462,59.2787293 1.31082693,58.9415645 C1.13050925,58.6043998 1.03448276,58.2699657 1.03448276,57.347705 L1.03448276,2.65229503 C1.03448276,1.73003427 1.13050925,1.39560023 1.31082693,1.05843548 C1.49114462,0.721270728 1.75575349,0.456661858 2.09291824,0.276344176 C2.43008299,0.0960264943 2.76451703,-6.51315957e-16 3.68677779,-1.89603068e-15 L82.1752912,-7.74884751e-16 C83.0975519,-1.30273403e-15 83.431986,0.0960264943 83.7691507,0.276344176 C84.1063155,0.456661858 84.3709243,0.721270728 84.551242,1.05843548 C84.7315597,1.39560023 84.8275862,1.73003427 84.8275862,2.65229503 L84.8275862,25.3175512 L78.6206897,30 L84.8275862,35.2997037 L84.8275862,57.347705 Z" id="path-3"></path>
        <path d="M16.8472906,33.6945813 C26.1517923,33.6945813 33.6945813,26.1517923 33.6945813,16.8472906 C33.6945813,7.54278894 26.1517923,0 16.8472906,0 C7.54278894,0 0,7.54278894 0,16.8472906 C0,26.1517923 7.54278894,33.6945813 16.8472906,33.6945813 Z" id="path-5"></path>
        <path d="M16.8472906,33.6945813 C26.1517923,33.6945813 33.6945813,26.1517923 33.6945813,16.8472906 C33.6945813,7.54278894 26.1517923,0 16.8472906,0 C7.54278894,0 0,7.54278894 0,16.8472906 C0,26.1517923 7.54278894,33.6945813 16.8472906,33.6945813 Z" id="path-7"></path>
        <path d="M16.8472906,33.6945813 C26.1517923,33.6945813 33.6945813,26.1517923 33.6945813,16.8472906 C33.6945813,7.54278894 26.1517923,0 16.8472906,0 C7.54278894,0 0,7.54278894 0,16.8472906 C0,26.1517923 7.54278894,33.6945813 16.8472906,33.6945813 Z" id="path-9"></path>
        <path d="M16.8472906,33.6945813 C26.1517923,33.6945813 33.6945813,26.1517923 33.6945813,16.8472906 C33.6945813,7.54278894 26.1517923,0 16.8472906,0 C7.54278894,0 0,7.54278894 0,16.8472906 C0,26.1517923 7.54278894,33.6945813 16.8472906,33.6945813 Z" id="path-11"></path>
    </defs>
    <g id="Pay-with-BitPay-CardGroup" stroke="none" stroke-width="1" fill="none" fill-rule="evenodd">
        <g id="Mark/Large/Card-Group-2020/Pay-with-BitPay-L">
            <g id="Button/payment/pay-btn-Copy-9">
                <mask id="mask-2" fill="white">
                    <use xlink:href="#path-1"></use>
                </mask>
                <path stroke="#1A3B8B" stroke-width="1.03448276" d="M279.178169,0.517241379 L5.30459007,0.517241379 C3.60654986,0.517241379 2.9835299,0.67575978 2.3608014,1.00879863 C1.77794403,1.32051416 1.32051416,1.77794403 1.00879863,2.3608014 C0.67575978,2.9835299 0.517241379,3.60654986 0.517241379,5.30459007 L0.517241379,54.6954099 C0.517241379,56.3934501 0.67575978,57.0164701 1.00879863,57.6391986 C1.32051416,58.222056 1.77794403,58.6794858 2.3608014,58.9912014 C2.9835299,59.3242402 3.60654986,59.4827586 5.30459007,59.4827586 L279.178169,59.4827586 C280.876209,59.4827586 281.499229,59.3242402 282.121957,58.9912014 C282.704815,58.6794858 283.162244,58.222056 283.47396,57.6391986 C283.806999,57.0164701 283.965517,56.3934501 283.965517,54.6954099 L283.965517,5.30459007 C283.965517,3.60654986 283.806999,2.9835299 283.47396,2.3608014 C283.162244,1.77794403 282.704815,1.32051416 282.121957,1.00879863 C281.499229,0.67575978 280.876209,0.517241379 279.178169,0.517241379 Z"></path>
                <mask id="mask-4" fill="white">
                    <use xlink:href="#path-3"></use>
                </mask>
                <use id="shape-2" fill="#1A3B8B" xlink:href="#path-3"></use>
                <g id="Logo/Paywith-Bitpay-vertical-white" mask="url(#mask-4)">
                    <g transform="translate(10.344828, 13.448276)" id="Group-2">
                        <g>
                            <g id="Pay-with-Clipped" transform="translate(14.004310, 0.000000)" fill="#97AAFF" fill-rule="nonzero">
                                <path d="M2.33022273,0.357935578 C2.79511458,0.357935578 3.19430923,0.442198725 3.52781861,0.610727564 C3.86132796,0.779256437 4.1139828,1.01265791 4.28579068,1.31093907 C4.45759853,1.60922019 4.54350118,1.95372975 4.54350118,2.34447803 C4.54350118,2.76207162 4.45832039,3.11851225 4.28795632,3.41381057 C4.11759221,3.70910892 3.86710298,3.93356209 3.53648112,4.08717689 C3.2058593,4.24079168 2.80377716,4.31759792 2.33022273,4.31759792 L0.840266186,4.31759792 L0.840266186,6.8723631 L0,6.8723631 L0,0.357935578 L2.33022273,0.357935578 Z M2.33022273,3.61962352 C2.79800211,3.61962352 3.14377829,3.5062784 3.36756165,3.27958473 C3.59134498,3.05289106 3.70323499,2.74417473 3.70323499,2.35342642 C3.70323499,2.11778432 3.65486965,1.90227944 3.55813748,1.70690528 C3.46140531,1.51153113 3.30981243,1.3549359 3.10335425,1.23711485 C2.89689607,1.1192938 2.63918813,1.06038414 2.33022273,1.06038414 L0.840266186,1.06038414 L0.840266186,3.61962352 L2.33022273,3.61962352 Z M8.84154578,5.81645315 C8.84154578,5.98647338 8.85598324,6.16171094 8.88485849,6.34217101 C8.91373374,6.52263112 8.9541583,6.6754979 9.00613382,6.80077598 L9.00613382,6.8723631 L8.1615363,6.8723631 C8.1124486,6.75603344 8.0749112,6.58750715 8.04892345,6.36677909 C7.88722192,6.54574778 7.69303881,6.68966627 7.46636789,6.79853889 C7.23969696,6.90741151 6.99065151,6.961847 6.71922396,6.961847 C6.40737087,6.961847 6.1308944,6.89846322 5.88978602,6.77169371 C5.64867734,6.64492423 5.46243465,6.47266945 5.33105215,6.25492424 C5.19966969,6.037179 5.13397942,5.79557488 5.13397942,5.53010469 C5.13397942,5.18708136 5.21988206,4.89626162 5.39168995,4.65763671 C5.5634978,4.41901181 5.80749016,4.23930012 6.12367452,4.11849623 C6.43985869,3.99769237 6.81306598,3.93729136 7.24330756,3.93729136 L8.03159849,3.93729136 L8.03159849,3.5525106 C8.03159849,3.25721228 7.94713943,3.02530217 7.77821901,2.85677333 C7.60929891,2.68824449 7.36602844,2.60398134 7.04840036,2.60398134 C6.85493609,2.60398134 6.68168689,2.63902883 6.52864817,2.7091249 C6.37560911,2.77922097 6.25650047,2.87317812 6.17131831,2.99099917 C6.08613614,3.10882022 6.04354588,3.2363335 6.04354588,3.37354283 L5.23359862,3.37354283 C5.23359862,3.13790073 5.31156068,2.90971907 5.46748713,2.68899102 C5.62341361,2.468263 5.84286238,2.28855128 6.1258399,2.14985057 C6.40881774,2.01114982 6.73221587,1.94180052 7.09604415,1.94180052 C7.44254747,1.94180052 7.74645528,2.00220153 8.00777644,2.12300539 C8.26909759,2.24380924 8.47338709,2.42575803 8.62065083,2.66885716 C8.7679149,2.91195627 8.84154578,3.20948727 8.84154578,3.56145899 L8.84154578,5.81645315 Z M6.83616821,6.24597585 C7.02097001,6.24597585 7.19349709,6.21241971 7.35375471,6.14530645 C7.51401266,6.07819319 7.65188983,5.98945588 7.76739083,5.87909188 C7.88289216,5.76872783 7.97096017,5.6494172 8.03159849,5.5211563 L8.03159849,4.51893668 L7.37324536,4.51893668 C6.91124104,4.51893668 6.5575244,4.59425153 6.31208462,4.74488352 C6.06664483,4.89551547 5.94392658,5.11847729 5.94392658,5.41377561 C5.94392658,5.57186463 5.97857648,5.71354605 6.04787728,5.8388241 C6.11717775,5.96410219 6.21823964,6.06327918 6.35106592,6.13635806 C6.4838922,6.20943694 6.64559143,6.24597585 6.83616821,6.24597585 Z M13.4211227,2.03128442 L11.5413519,7.61955363 C11.4258509,7.94468008 11.2590988,8.2272972 11.0410904,8.46741353 C10.8230819,8.70752982 10.526393,8.82758621 10.1510144,8.82758621 C10.0903764,8.82758621 10.0116927,8.81938359 9.91496055,8.80297812 C9.81822841,8.78657266 9.74531932,8.77091314 9.69623129,8.75599909 L9.69623129,8.08934407 C9.72799404,8.09530968 9.76408752,8.10052952 9.80451307,8.10500376 C9.84493829,8.10947795 9.8810321,8.11171505 9.91279485,8.11171505 C10.1871099,8.11171505 10.4000619,8.05280539 10.551657,7.93498434 C10.7032521,7.81716329 10.8266922,7.6106067 10.9219804,7.31530838 L11.0995626,6.81867277 L9.42769256,2.03128442 L10.3112714,2.03128442 L11.4720518,5.65538213 L12.5592003,2.03128442 L13.4211227,2.03128442 Z M21.8699487,2.03128442 L20.50993,6.8723631 L19.8559083,6.8723631 L18.721116,3.21694601 L17.6123111,6.8723631 L16.9582894,6.8723631 L15.5982711,2.03128442 L16.403887,2.03128442 L17.3221161,5.62406276 L18.4092646,2.03128442 L19.0632863,2.03128442 L20.1677597,5.70459827 L21.0686639,2.03128442 L21.8699487,2.03128442 Z M23.0061668,0.268451675 C23.156318,0.268451675 23.2739831,0.313193168 23.3591649,0.402677513 C23.4443471,0.492161857 23.4869374,0.605507012 23.4869374,0.742716337 C23.4869374,0.876942854 23.4443471,0.98805091 23.3591649,1.07604383 C23.2739831,1.16403676 23.156318,1.20803257 23.0061668,1.20803257 C22.8560152,1.20803257 22.7397941,1.16403676 22.6574994,1.07604383 C22.5752051,0.98805091 22.5340584,0.876942854 22.5340584,0.742716337 C22.5340584,0.605507012 22.5752051,0.492161857 22.6574994,0.402677513 C22.7397941,0.313193168 22.8560152,0.268451675 23.0061668,0.268451675 Z M22.594696,6.8723631 L22.594696,2.03128442 L23.4046433,2.03128442 L23.4046433,6.8723631 L22.594696,6.8723631 Z M26.5115888,6.8723631 C26.3267873,6.93201932 26.1203321,6.961847 25.8922176,6.961847 C25.5659268,6.961847 25.3038877,6.86043292 25.1060921,6.65760175 C24.9082964,6.45477059 24.8094002,6.12517487 24.8094002,5.66880473 L24.8094002,2.66214587 L23.9561402,2.66214587 L23.9561402,2.03128442 L24.8094002,2.03128442 L24.8094002,0.854571191 L25.6193475,0.854571191 L25.6193475,2.03128442 L26.4942638,2.03128442 L26.4942638,2.66214587 L25.6193475,2.66214587 L25.6193475,5.67327892 C25.6193475,5.9029554 25.6655474,6.05731356 25.7579481,6.13635806 C25.8503492,6.21540255 25.9759546,6.25492424 26.1347686,6.25492424 C26.1954066,6.25492424 26.2618186,6.2497044 26.3340069,6.23926455 C26.4061952,6.2288247 26.4639447,6.21763935 26.5072577,6.20570808 L26.5115888,6.8723631 Z M29.4539462,1.94180052 C30.4559181,1.94180052 30.9568966,2.52791416 30.9568966,3.70015903 L30.9568966,6.8723631 L30.1469493,6.8723631 L30.1469493,3.69121063 C30.1469493,3.32134202 30.0697091,3.05289303 29.9152265,2.88585561 C29.7607438,2.71881816 29.5275794,2.63530069 29.2157263,2.63530069 C28.967399,2.63530069 28.744341,2.7053957 28.5465453,2.84558784 C28.3487497,2.98577997 28.192104,3.17369427 28.0766026,3.40933637 L28.0766026,6.8723631 L27.2666553,6.8723631 L27.2666553,0 L28.0766026,0 L28.0766026,2.60398134 C28.246967,2.39220172 28.4490908,2.22889523 28.6829802,2.11405699 C28.9168701,1.99921875 29.1738562,1.94180052 29.4539462,1.94180052 Z" id="Pay-with"></path>
                            </g>
                            <g id="Logo/Interface/bitpay-logo-white-(160x58)" transform="translate(0.000000, 10.344828)" fill="#FFFFFF">
                                <g id="Group">
                                    <path d="M59.9707999,5.15192959 L56.8522815,5.15192959 L55.0476567,12.993949 L54.794376,14.0699849 C54.6202455,14.1188956 54.4461151,14.1678064 54.2719846,14.2004135 C53.9553837,14.2656278 53.6229529,14.298235 53.2746919,14.298235 C52.8789409,14.298235 52.56234,14.2330207 52.3248894,14.1188956 C52.1032688,14.0047706 51.9291383,13.8417349 51.834158,13.6134848 C51.7391778,13.4015384 51.7075177,13.1406812 51.7233478,12.8472168 C51.7391778,12.5537525 51.802498,12.227681 51.8816482,11.9016095 L52.8314507,7.82571583 L53.4488224,5.11932244 L50.2669838,5.11932244 L48.82645,11.3798951 C48.6523195,12.1298595 48.5573392,12.8472168 48.5256792,13.531967 C48.4940191,14.2167171 48.6048294,14.8036458 48.82645,15.3416637 C49.0480706,15.8633781 49.4438216,16.2709675 49.9820431,16.5807354 C50.5202645,16.8905033 51.2959366,17.0372355 52.2773992,17.0372355 C52.9580911,17.0372355 53.5596327,16.9720212 54.066194,16.8578962 C54.0820241,16.8578962 54.1136842,16.8415926 54.1295142,16.8415926 L54.1295142,16.8415926 C53.9870438,17.4937356 53.7021031,18.01545 53.2588619,18.4230393 C52.7997906,18.8306287 52.1349289,19.0425752 51.2484465,19.0425752 C50.8685255,19.0425752 50.5202645,19.0262716 50.2036637,18.9773609 L49.586292,21.6348435 C49.9978731,21.6837543 50.4569443,21.7163614 50.9635057,21.7163614 C51.9133083,21.7163614 52.7364705,21.6022364 53.4488224,21.3902899 C54.1611743,21.1620399 54.7627159,20.8359684 55.2851073,20.3794683 C55.7916687,19.9229682 56.2190798,19.3523431 56.5673408,18.6838965 C56.9156017,17.9991464 57.1847124,17.2002712 57.390503,16.2546639 L59.5433888,6.92901922 L59.5433888,6.92901922 L59.9707999,5.15192959 L59.9707999,5.15192959 Z" id="y_2_"></path>
                                    <path d="M46.9110148,11.8526988 C46.7210543,12.6678775 46.6577341,13.4993598 46.7368844,14.3145385 C46.8160346,15.1460208 47.1326354,16.4013961 47.4334062,17.0372355 L44.4256981,17.0372355 C44.0616072,16.4013961 44.0774372,16.0916282 43.998287,15.8959853 C43.6025359,16.2220568 43.1751248,16.4992175 42.7002235,16.711164 C42.2253222,16.9231105 41.7029308,17.0372355 41.1013892,17.0372355 C40.4048673,17.0372355 39.8033257,16.9068069 39.3125944,16.6622533 C38.8218631,16.4176997 38.410282,16.0753246 38.0936811,15.6514317 C37.7770803,15.2275387 37.5554597,14.7384315 37.4129893,14.1678064 C37.2705189,13.5971813 37.2071988,12.993949 37.2071988,12.341806 C37.2071988,11.347288 37.3813292,10.4179842 37.7137601,9.53759117 C38.0620211,8.65719813 38.5369223,7.89093013 39.1384639,7.23878714 C39.7400056,6.58664416 41.2121995,5.13562601 43.618366,5.13562601 L48.4465289,5.13562601 L46.9110148,11.8526988 L46.9110148,11.8526988 Z M44.7106389,7.85832298 C43.254275,7.85832298 42.9851643,7.85832298 42.3836227,8.1680909 C41.9562115,8.39634094 41.6079506,8.73871601 41.3071798,9.1300018 C41.006409,9.52128759 40.7531283,9.97778768 40.5789978,10.4995021 C40.4048673,11.0212165 40.3098871,11.5592344 40.3098871,12.113556 C40.3098871,12.7983061 40.4206974,13.3526276 40.642318,13.760217 C40.8639386,14.1678064 41.2755197,14.3634493 41.8770613,14.3634493 C42.1936622,14.3634493 42.494433,14.298235 42.7477136,14.1678064 C43.0009943,14.0373778 43.2859351,13.8254313 43.5708759,13.5156634 C43.6025359,13.1569847 43.6500261,12.7820025 43.7133462,12.3907167 C43.7766664,11.9994309 43.8558166,11.6244487 43.9191368,11.2983772 L44.7106389,7.85832298 L44.7106389,7.85832298 Z" id="a_2_"></path>
                                    <path d="M36.3523765,9.86366266 C36.3523765,10.923395 36.178246,11.8853059 35.8458151,12.7656989 C35.5133842,13.646092 35.0384829,14.3960564 34.4369413,15.0318958 C33.8353997,15.6677352 33.1230478,16.1568425 32.2840555,16.5155211 C31.4450633,16.8741998 30.5427509,17.0535391 29.5612882,17.0535391 C29.0863869,17.0535391 28.6114857,17.0046284 28.1207543,16.9231105 L27.1709518,20.852272 L24.0524334,20.852272 L27.6775132,5.16823316 L31.8408143,5.16823316 C32.6323165,5.16823316 33.3130083,5.29866176 33.8670598,5.54321538 C34.4369413,5.787769 34.8960125,6.13014407 35.2759336,6.55403701 C35.6400245,6.97792995 35.9091353,7.48334076 36.0832657,8.05396587 C36.2732262,8.60828741 36.3523765,9.21151967 36.3523765,9.86366266 L36.3523765,9.86366266 Z M28.7064659,14.3145385 C28.9439166,14.3797528 29.2446874,14.3960564 29.5929483,14.3960564 C30.1469998,14.3960564 30.6377311,14.298235 31.0968023,14.0862885 C31.5400435,13.874342 31.9357946,13.5808777 32.2523954,13.2058955 C32.5689963,12.8309132 32.8064469,12.3744132 32.9964074,11.8526988 C33.1705379,11.3309844 33.2655182,10.7440557 33.2655182,10.1082163 C33.2655182,9.48868044 33.1388778,8.95066248 32.8697671,8.52676954 C32.6006564,8.08657302 32.1415851,7.85832298 31.4767234,7.85832298 L30.24198,7.85832298 L28.7064659,14.3145385 L28.7064659,14.3145385 Z" id="p_2_"></path>
                                    <path d="M22.1528283,14.3145385 C21.7570773,14.3145385 21.4404764,14.2493242 21.2030258,14.1351992 C20.9814052,14.0210742 20.8072747,13.8580384 20.7122944,13.6297884 C20.6173142,13.4178419 20.5856541,13.1569847 20.6014841,12.8635204 C20.6173142,12.570056 20.6806344,12.2439846 20.7597846,11.9179131 L21.7095871,7.8420194 L25.2555166,7.8420194 L25.9045484,5.13562601 L22.3427888,5.13562601 L23.165951,1.71187534 L19.8416421,2.2498933 L17.7362464,11.4125022 C17.562116,12.1624667 17.4671357,12.879824 17.4354756,13.5645741 C17.4038156,14.2493242 17.5146259,14.8362529 17.7362464,15.3742709 C17.957867,15.8959853 18.3536181,16.3035746 18.8918396,16.6133426 C19.430061,16.9231105 20.2057331,17.0698426 21.1871957,17.0698426 C21.8678875,17.0698426 22.4694292,17.0046284 22.9759905,16.8905033 C23.0234807,16.8741998 23.1026309,16.8578962 23.150121,16.8415926 L23.7991527,14.0536813 C23.5775321,14.1351992 23.3559115,14.1841099 23.150121,14.2167171 C22.8335201,14.2819314 22.5010892,14.3145385 22.1528283,14.3145385 L22.1528283,14.3145385 Z" id="t_2_"></path>
                                    <polygon id="i_bottom_6_" points="14.221977 5.15192959 11.4675496 17.0535391 14.586068 17.0535391 17.3246653 5.15192959"></polygon>
                                    <polygon id="i_top_2_" points="17.6570962 3.78242932 18.1319975 1.71187534 15.0134791 1.71187534 14.5385779 3.78242932"></polygon>
                                    <path d="M7.32007847,5.16823316 C7.98494025,5.16823316 8.57065183,5.29866176 9.06138315,5.54321538 C9.55211446,5.787769 9.94786553,6.11384049 10.2802964,6.53773343 C10.5968973,6.96162637 10.8343479,7.45073361 10.9926483,8.00505515 C11.1509488,8.55937669 11.230099,9.16260895 11.230099,9.81475193 C11.230099,10.80927 11.0559685,11.7385737 10.6918775,12.6352703 C10.3277865,13.5156634 9.85288527,14.298235 9.23551361,14.9503779 C8.61814196,15.6025209 7.88996,16.1242353 7.05096775,16.4992175 C6.21197549,16.8741998 5.30966307,17.0698426 4.32820043,17.0698426 C4.20156009,17.0698426 3.9799395,17.0698426 3.66333865,17.0535391 C3.34673779,17.0535391 2.98264682,17.0209319 2.58689575,16.9557176 C2.17531465,16.8905033 1.7479035,16.8089855 1.30466231,16.6948604 C0.845591076,16.5807354 0.418179928,16.4176997 0.0224288646,16.2220568 L3.6475086,0.538017963 L6.89266732,0.0163035746 L5.61043388,5.57582253 C5.89537464,5.44539393 6.14865532,5.34757248 6.43359609,5.28235818 C6.70270681,5.20084031 7.00347762,5.16823316 7.32007847,5.16823316 L7.32007847,5.16823316 Z M4.59731115,14.3960564 C5.08804247,14.3960564 5.54711371,14.2819314 5.97452485,14.0210742 C6.401936,13.7765206 6.78185702,13.4504491 7.09845787,13.0428597 C7.41505872,12.6352703 7.6683394,12.1624667 7.84246987,11.6570559 C8.01660034,11.1353415 8.11158059,10.5973235 8.11158059,10.043002 C8.11158059,9.35825184 8.0007703,8.82023388 7.7791497,8.42894809 C7.55752911,8.0376623 7.09845787,7.85832298 6.49691626,7.85832298 C6.30695575,7.85832298 6.10116519,7.87462655 5.78456434,7.95614443 C5.46796349,8.02135872 5.19885277,8.18439447 4.94557209,8.41264452 L3.58418843,14.3308421 C3.99576954,14.3960564 4.12240988,14.41236 4.23322018,14.41236 C4.31237039,14.3960564 4.43901073,14.3960564 4.59731115,14.3960564 L4.59731115,14.3960564 Z" id="b_2_"></path>
                                </g>
                            </g>
                        </g>
                    </g>
                </g>
                <g id="coin/group-1" transform="translate(84.827586, 5.172414)">
                    <g id="bp-currencies-copy-8">
                        <g id="mark-busd" transform="translate(146.896552, 0.524184)">
                            <g id="Coins/Large/BUSD" transform="translate(8.866995, 8.866995)">
                                <g id="usd-icon---test">
                                    <circle id="Oval" fill="#F3BA2D" cx="16.8472906" cy="16.8472906" r="16.8472906"></circle>
                                    <path d="M25.5401523,21.3881946 L25.5401523,25.4315444 L9.36675324,25.4315444 L9.36675324,21.3881946 L25.5401523,21.3881946 Z M25.0636389,15.1935212 L25.0636389,19.236871 L8.8902399,19.236871 L8.8902399,15.1935212 L25.0636389,15.1935212 Z M12.8039409,8.9988478 L12.8039409,13.0421976 L8.76059113,13.0421976 L8.76059113,8.9988478 L12.8039409,8.9988478 Z M25.1284633,8.76059113 L25.1284633,12.8039409 L15.0200889,12.8039409 L15.0200889,8.76059113 L25.1284633,8.76059113 Z" id="Rectangle-2" fill="#FFFFFF" transform="translate(17.150372, 17.096068) rotate(-45.000000) translate(-17.150372, -17.096068) "></path>
                                </g>
                            </g>
                        </g>
                        <g id="mark-busd-copy" transform="translate(117.931034, 0.524184)">
                            <g id="Coins/Small/USDC-" transform="translate(8.866995, 8.866995)">
                                <g id="USD_Coin_logo">
                                    <circle id="Oval" fill="#2775CA" fill-rule="nonzero" cx="16.8472906" cy="16.8472906" r="16.8472906"></circle>
                                    <path d="M13.4778325,28.4430525 C13.4778325,28.8397148 13.1633498,29.0644901 12.7964532,28.9454914 C7.71231527,27.3059538 4.04334975,22.5195618 4.04334975,16.8472906 C4.04334975,11.1882415 7.71231527,6.38862745 12.7964532,4.74908986 C13.1764532,4.63009116 13.4778325,4.85486648 13.4778325,5.2515288 L13.4778325,6.2431846 C13.4778325,6.50762615 13.2812808,6.81173392 13.0323153,6.90428847 C9.00955665,8.39838321 6.13990148,12.298896 6.13990148,16.8472906 C6.13990148,21.4089073 9.00955665,25.2961981 13.0323153,26.7770707 C13.2812808,26.8696253 13.4778325,27.1737331 13.4778325,27.4381746 L13.4778325,28.4430525 Z" id="Path" fill="#FFFFFF" fill-rule="nonzero"></path>
                                    <path d="M17.9782736,25.0814039 C17.9782736,25.3709667 17.7409477,25.6078818 17.4508827,25.6078818 L16.3961008,25.6078818 C16.1060358,25.6078818 15.8687098,25.3709667 15.8687098,25.0814039 L15.8687098,23.4229988 C13.5613745,23.1071121 12.4406687,21.8304033 12.1374189,20.0667026 C12.0846798,19.7639778 12.3220057,19.5007389 12.6252555,19.5007389 L13.8250699,19.5007389 C14.0755806,19.5007389 14.286537,19.6850062 14.3392761,19.9219212 C14.5634172,20.9617149 15.1699168,21.7645936 17.0157851,21.7645936 C18.3738168,21.7645936 19.3494901,21.0012007 19.3494901,19.8692734 C19.3494901,18.7373461 18.7825448,18.3030018 16.7784592,17.9739532 C13.8250699,17.5790948 12.4274839,16.6840825 12.4274839,14.380742 C12.4274839,12.6038793 13.7855156,11.2087131 15.8687098,10.9191502 L15.8687098,9.28706897 C15.8687098,8.99750616 16.1060358,8.76059113 16.3961008,8.76059113 L17.4508827,8.76059113 C17.7409477,8.76059113 17.9782736,8.99750616 17.9782736,9.28706897 L17.9782736,10.9586361 C19.6791094,11.2613608 20.7602608,12.2221829 21.1162497,13.8279403 C21.1821736,14.130665 20.9448477,14.4070659 20.6284131,14.4070659 L19.5208921,14.4070659 C19.2835662,14.4070659 19.0857946,14.2491225 19.0198707,14.0253695 C18.7166209,13.0118996 17.9914584,12.5643935 16.7257201,12.5643935 C15.3281341,12.5643935 14.6029716,13.2356527 14.6029716,14.1833128 C14.6029716,15.1836207 15.0116995,15.6837746 17.1608176,15.9864994 C20.0614678,16.3813578 21.564532,17.2105603 21.564532,19.6718442 C21.564532,21.5408405 20.166946,23.0544643 17.9914584,23.3966749 L17.9914584,25.0814039 L17.9782736,25.0814039 Z" id="Path" fill="#FFFFFF" fill-rule="nonzero"></path>
                                    <path d="M20.8981281,28.9454567 C20.5181281,29.0645852 20.2167488,28.8395646 20.2167488,28.4424695 L20.2167488,27.4497315 C20.2167488,27.1585284 20.3870936,26.8805618 20.662266,26.7879063 C24.6719212,25.3054177 27.5546798,21.4006485 27.5546798,16.8472906 C27.5546798,12.2806962 24.6850246,8.38916362 20.662266,6.90667501 C20.4133005,6.81401947 20.2167488,6.50957984 20.2167488,6.24484973 L20.2167488,5.25211182 C20.2167488,4.85501665 20.5312315,4.62999606 20.8981281,4.74912461 C25.982266,6.36397828 29.6512315,11.1688298 29.6512315,16.8340541 C29.6512315,22.512515 25.982266,27.30413 20.8981281,28.9454567 Z" id="Path" fill="#FFFFFF" fill-rule="nonzero"></path>
                                </g>
                            </g>
                        </g>
                        <g id="mark-xrp" transform="translate(88.965517, 0.524184)">
                            <g id="50px/Coin/XRP-" transform="translate(8.866995, 8.866995)">
                                <g id="XRP">
                                    <mask id="mask-6" fill="white">
                                        <use xlink:href="#path-5"></use>
                                    </mask>
                                    <use id="Mask" fill="#000000" xlink:href="#path-5"></use>
                                    <path d="M22.4867497,9.75369458 L24.7937156,9.75369458 L19.9916136,14.7326764 C18.2529215,16.5353464 15.4341329,16.5353464 13.6992042,14.7326764 L8.89710233,9.75369458 L11.2040682,9.75369458 L14.8508055,13.5359143 C15.9534825,14.6762254 17.7373354,14.6762254 18.836249,13.5359143 L22.4867497,9.75369458 Z M11.173961,23.6030168 L8.86699507,23.6030168 L13.6992042,18.5901643 C15.4378963,16.7874944 18.256685,16.7874944 19.9953771,18.5901643 L24.8275862,23.6030168 L22.5206203,23.6030168 L18.8437758,19.7869263 C17.7410988,18.6466153 15.9572459,18.6466153 14.8583323,19.7869263 L11.173961,23.6030168 Z" id="Shape" fill="#FFFFFF" fill-rule="nonzero" mask="url(#mask-6)"></path>
                                </g>
                            </g>
                        </g>
                        <g id="mark-eth" transform="translate(58.965517, 0.524184)">
                            <g id="50px/Coin/Ethereum-(alt)" transform="translate(8.866995, 8.866995)">
                                <g id="item-ico-backup">
                                    <mask id="mask-8" fill="white">
                                        <use xlink:href="#path-7"></use>
                                    </mask>
                                    <use id="Mask" fill="#6B71D6" xlink:href="#path-7"></use>
                                </g>
                                <g id="path0" transform="translate(10.108374, 5.391133)" fill="#E9ECFF">
                                    <path d="M6.97925901,0.552071224 C6.93035031,0.67036136 5.45241506,3.17822194 3.69495845,6.12511504 C1.93750184,9.0719472 0.484955688,11.5216683 0.466984304,11.5689599 C0.443645627,11.6304513 1.39842063,12.2306778 3.81484808,13.6735615 L7.19545838,15.6921116 L10.5751038,13.6724645 C13.0031101,12.2214754 13.9455222,11.6283793 13.9219423,11.5662175 C13.7998214,11.244561 7.22784305,0.336942848 7.15613844,0.336942848 C7.1077725,0.336942848 7.02816771,0.433720146 6.97925901,0.552071224 M0.475005089,13.0206804 C0.605267469,13.2457424 7.1675364,22.5762197 7.19497593,22.5753665 C7.24032653,22.5739648 13.9495628,12.9930123 13.9237059,12.9667459 C13.8991464,12.942064 7.62791742,16.6745719 7.36630714,16.8695281 L7.20595174,16.9890981 L3.95898099,15.0518457 C2.17311995,13.9863813 0.64603477,13.0716286 0.565465075,13.0191568 C0.431885829,12.9321913 0.423865044,12.9323132 0.475005089,13.0206804" id="Shape"></path>
                                </g>
                            </g>
                        </g>
                        <g id="mark-bch" transform="translate(28.965517, 0.524184)">
                            <g id="50px/Coin/Bitcoin-Cash-(alt)" transform="translate(8.866995, 8.866995)">
                                <g id="item-ico-backup" stroke-width="1">
                                    <mask id="mask-10" fill="white">
                                        <use xlink:href="#path-9"></use>
                                    </mask>
                                    <use id="Mask" fill="#2FCF6E" xlink:href="#path-9"></use>
                                </g>
                                <path d="M20.8489782,14.862654 C20.3941358,16.6942793 17.4049621,15.809071 16.4303694,15.5827842 L17.2536733,12.3313015 C18.2063046,12.5575883 21.3252939,12.9489533 20.8489782,14.862654 L20.8489782,14.862654 Z M20.3721745,20.1103764 C19.8743856,22.1270191 16.2785926,21.0776601 15.1307499,20.8101037 L16.0189615,17.2293921 C17.1882775,17.4969485 20.8919247,17.9907918 20.3721745,20.1103764 Z M20.7621092,11.1581339 L21.4336362,8.48303351 L19.7226088,8.09213221 L19.073043,10.7055601 C18.6182006,10.6026181 18.1633581,10.4996762 17.7085157,10.4176008 L18.3580815,7.80370918 L16.6255807,7.41280788 L15.9540537,10.0883719 C15.5855923,10.0058329 15.2176189,9.94416043 14.8491575,9.86162136 L12.4885643,9.32697225 L12.0551951,11.0556556 C12.0551951,11.0556556 13.3333414,11.3227483 13.2899069,11.3436149 C13.9829071,11.5082293 14.1127227,11.9404002 14.0912494,12.269629 L13.3333414,15.3152278 C13.3762879,15.3360944 13.4416837,15.3360944 13.5065915,15.3769002 C13.4416837,15.3564973 13.3982492,15.3564973 13.3333414,15.3360944 L12.2933529,19.5956665 C12.2069719,19.8015505 11.9902873,20.0895098 11.5139716,19.9870315 C11.5354449,20.0074345 10.2577866,19.6986085 10.2577866,19.6986085 L9.43448276,21.5715034 L11.6652604,22.0653466 C12.0771564,22.1682886 12.4885643,22.250364 12.8784989,22.353306 L12.2069719,25.0492729 L13.9179994,25.4401742 L14.5895264,22.7650739 C15.0658421,22.8884188 15.5206845,22.9913608 15.9540537,23.0943027 L15.2825267,25.7490002 L16.9935541,26.1399015 L17.6650812,23.4443982 C20.5888591,23.9382415 22.7762023,23.7114909 23.6644139,21.1806021 C24.3793754,19.1634957 23.5995061,18.0111947 22.0402555,17.249795 C23.1880982,17.0026416 24.010914,16.303378 24.2275986,14.862654 C24.509191,12.8868172 22.9279791,11.8578611 20.7621092,11.1581339 Z" id="Shape" fill="#FFFFFF" transform="translate(16.847291, 16.776355) rotate(-32.000000) translate(-16.847291, -16.776355) "></path>
                            </g>
                        </g>
                        <g id="mark-btc" transform="translate(0.000000, 0.524184)">
                            <g id="Currency/Large/Bitcoin-(alt)" transform="translate(8.866995, 8.866995)">
                                <g id="Currency/Large/Bitcoin">
                                    <g id="item-ico-backup">
                                        <mask id="mask-12" fill="white">
                                            <use xlink:href="#path-11"></use>
                                        </mask>
                                        <use id="Mask" fill="#F7931A" xlink:href="#path-11"></use>
                                    </g>
                                    <g id="Group" transform="translate(2.695567, 2.695567)" fill="#FFFFFF">
                                        <g id="Shape-2" transform="translate(6.738916, 4.717241)">
                                            <path d="M11.4144955,7.50628436 C10.959653,9.35178561 7.97047929,8.45987121 6.99588664,8.23187004 L7.8191905,4.9557549 C8.77182187,5.18375606 11.8908112,5.57808595 11.4144955,7.50628436 L11.4144955,7.50628436 Z M10.9376918,12.7937623 C10.4399028,14.8256825 6.84410982,13.7683738 5.6962671,13.4987905 L6.58447873,9.89095231 C7.7537947,10.1605357 11.457442,10.6581202 10.9376918,12.7937623 Z M14.7931159,7.50628436 C15.0747082,5.51547908 13.4934963,4.47872786 11.3276264,3.77369966 L11.9991535,1.07833339 L10.288126,0.68447072 L9.63856025,3.31769732 C9.18371781,3.21397548 8.72887537,3.11025364 8.27403294,3.02755649 L8.92359869,0.393862673 L7.19109799,0 L6.51957096,2.69583348 C6.15110954,2.61266912 5.78313615,2.55052946 5.41467473,2.4673651 L3.05408152,1.92866562 L2.62071233,3.67044503 C2.62071233,3.67044503 3.89885862,3.93956117 3.8554241,3.96058586 C4.54842438,4.12644737 4.67823993,4.56189222 4.65676668,4.89361523 L3.89885862,7.96228669 C3.94180512,7.98331139 4.00720092,7.98331139 4.0721087,8.02442635 C4.00720092,8.00386887 3.9637664,8.00386887 3.89885862,7.98331139 L2.85887017,12.275153 C2.77248915,12.4825967 2.55580456,12.7727376 2.07948887,12.6694829 C2.10096212,12.6900404 0.823303855,12.3788749 0.823303855,12.3788749 L0,14.2659583 L2.23077767,14.7635428 C2.64267361,14.8672647 3.05408152,14.9499618 3.44401619,15.0536837 L2.77248915,17.7700746 L4.48351661,18.1639373 L5.15504364,15.468571 C5.63135933,15.5928504 6.08620177,15.6965722 6.51957096,15.8002941 L5.84804392,18.4751028 L7.55907138,18.8689655 L8.23059841,16.1530418 C11.1543764,16.6506263 13.3417195,16.4221579 14.2299311,13.8720957 C14.9448927,11.8397082 14.1650234,10.6786777 12.6057727,9.91150979 C13.7536154,9.66248393 14.5764313,8.95792294 14.7931159,7.50628436 L14.7931159,7.50628436 Z" id="Shape"></path>
                                        </g>
                                    </g>
                                </g>
                            </g>
                        </g>
                    </g>
                </g>
            </g>
        </g>
    </g>
</svg>