<?xml version="1.0" encoding="UTF-8"?>
<svg width="113px" height="75px" viewBox="0 0 113 75" version="1.1" xmlns="http://www.w3.org/2000/svg" xmlns:xlink="http://www.w3.org/1999/xlink">
    <!-- Generator: Sketch 64 (93537) - https://sketch.com -->
    <title>BitPay-Accepted-Card</title>
    <desc>Created with Sketch.</desc>
    <defs>
        <path d="M0,4.00581045 C0,1.79346243 1.79777584,0 4.00511847,0 L108.994882,0 C111.206847,0 113,1.79833109 113,4.00581045 L113,70.9941896 C113,73.2065376 111.202224,75 108.994882,75 L4.00511847,75 C1.79315262,75 0,73.2016689 0,70.9941896 L0,4.00581045 Z" id="path-1"></path>
    </defs>
    <g id="BitPay-Accepted-Card" stroke="none" stroke-width="1" fill="none" fill-rule="evenodd">
        <g id="Mark/Large/Card/BitPay-Accepted-Card">
            <mask id="mask-2" fill="white">
                <use xlink:href="#path-1"></use>
            </mask>
            <use id="Rectangle-29" fill="#2A3F90" fill-rule="evenodd" xlink:href="#path-1"></use>
            <g id="Logo/Interface/bitpay-logo-white-(160x58)" mask="url(#mask-2)" fill-rule="evenodd" stroke-width="1">
                <g transform="translate(12.000000, 24.000000)" id="Group">
                    <g>
                        <path d="M89.9561999,7.58887406 L85.2784223,7.58887406 L82.571485,19.1402931 L82.191564,20.7253111 C81.9303683,20.7973574 81.6691726,20.8694037 81.4079769,20.9174345 C80.9330756,21.0134962 80.4344293,21.0615271 79.9120379,21.0615271 C79.3184113,21.0615271 78.84351,20.9654654 78.4873341,20.7973574 C78.1549032,20.6292494 77.8937075,20.3890952 77.7512371,20.0528792 C77.6087667,19.7406787 77.5612766,19.3564319 77.5850216,18.9241543 C77.6087667,18.4918767 77.7037469,18.0115682 77.8224723,17.5312597 L79.2471761,11.5274036 L80.1732336,7.54084321 L75.4004758,7.54084321 L73.239675,16.7627661 C72.9784793,17.8674756 72.8360089,18.9241543 72.7885187,19.9328021 C72.7410286,20.9414499 72.9072441,21.8060052 73.239675,22.5985142 C73.5721058,23.3670078 74.1657324,23.9673934 74.9730646,24.4236864 C75.7803968,24.8799795 76.9439049,25.0961183 78.4160989,25.0961183 C79.4371366,25.0961183 80.339449,25.0000566 81.0992911,24.8319487 C81.1230361,24.8319487 81.1705263,24.8079332 81.1942713,24.8079332 L81.1942713,24.8079332 C80.9805657,25.7685502 80.5531546,26.5370438 79.8882928,27.1374294 C79.199686,27.737815 78.2023933,28.0500155 76.8726697,28.0500155 C76.3027882,28.0500155 75.7803968,28.0260001 75.3054955,27.9539538 L74.379438,31.868468 C74.9968097,31.9405142 75.6854165,31.9885451 76.4452586,31.9885451 C77.8699624,31.9885451 79.1047057,31.8204371 80.1732336,31.5082366 C81.2417614,31.1720207 82.1440739,30.6917122 82.927661,30.0192803 C83.687503,29.3468484 84.3286197,28.5063086 84.8510111,27.5216762 C85.3734025,26.5130284 85.7770686,25.3362726 86.0857545,23.943378 L89.3150831,10.2065553 L89.3150831,10.2065553 L89.9561999,7.58887406 L89.9561999,7.58887406 Z" id="y_2_" fill="#FFFFFF"></path>
                        <path d="M70.3665222,17.4592134 C70.0815815,18.6599846 69.9866012,19.8847713 70.1053265,21.0855425 C70.2240519,22.3103291 70.6989531,24.1595168 71.1501093,25.0961183 L66.6385472,25.0961183 C66.0924108,24.1595168 66.1161558,23.7032237 65.9974305,23.4150386 C65.4038039,23.8953471 64.7626872,24.3036093 64.0503353,24.6158098 C63.3379834,24.9280104 62.5543962,25.0961183 61.6520838,25.0961183 C60.607301,25.0961183 59.7049886,24.9039949 58.9688916,24.5437636 C58.2327946,24.1835322 57.615423,23.6792083 57.1405217,23.0548073 C56.6656204,22.4304062 56.3331895,21.7099435 56.119484,20.8694037 C55.9057784,20.0288638 55.8107981,19.1402931 55.8107981,18.1796761 C55.8107981,16.7147353 56.0719938,15.3458561 56.5706402,14.0490232 C57.0930316,12.7521903 57.8053835,11.6234653 58.7076959,10.6628484 C59.6100083,9.70223139 61.8182993,7.56485863 65.427549,7.56485863 L72.6697934,7.56485863 L70.3665222,17.4592134 L70.3665222,17.4592134 Z M67.0659584,11.5754345 C64.8814125,11.5754345 64.4777464,11.5754345 63.575434,12.0317275 C62.9343173,12.3679435 62.4119259,12.8722674 61.9607697,13.4486376 C61.5096134,14.0250078 61.1296924,14.6974396 60.8684967,15.4659332 C60.607301,16.2344268 60.4648306,17.0269358 60.4648306,17.8434602 C60.4648306,18.852108 60.6310461,19.6686324 60.963477,20.2690181 C61.2959079,20.8694037 61.9132795,21.1575888 62.815592,21.1575888 C63.2904932,21.1575888 63.7416494,21.0615271 64.1215705,20.8694037 C64.5014915,20.6772803 64.9289026,20.3650798 65.3563138,19.9087867 C65.4038039,19.3804474 65.4750391,18.8280926 65.5700194,18.2517224 C65.6649996,17.6753522 65.7837249,17.1229975 65.8787052,16.642689 L67.0659584,11.5754345 L67.0659584,11.5754345 Z" id="a_2_" fill="#FFFFFF"></path>
                        <path d="M54.5285647,14.5293317 C54.5285647,16.0903342 54.267369,17.5072443 53.7687226,18.8040772 C53.2700763,20.1009101 52.5577244,21.2056196 51.655412,22.1422211 C50.7530995,23.0788227 49.6845717,23.7992854 48.4260833,24.3276247 C47.1675949,24.8559641 45.8141263,25.1201337 44.3419323,25.1201337 C43.6295804,25.1201337 42.9172285,25.0480875 42.1811315,24.9280104 L40.7564277,30.7157276 L36.0786501,30.7157276 L41.5162697,7.61288948 L47.7612215,7.61288948 C48.9484747,7.61288948 49.9695124,7.80501288 50.8005897,8.16524424 C51.655412,8.5254756 52.3440188,9.02979951 52.9139004,9.65420054 C53.4600368,10.2786016 53.8637029,11.0230797 54.1248986,11.8636196 C54.4098394,12.680144 54.5285647,13.5687147 54.5285647,14.5293317 L54.5285647,14.5293317 Z M43.0596989,21.0855425 C43.4158748,21.1816042 43.867031,21.2056196 44.3894225,21.2056196 C45.2204997,21.2056196 45.9565967,21.0615271 46.6452035,20.7493265 C47.3100653,20.437126 47.9036919,20.0048484 48.3785932,19.4524936 C48.8534944,18.9001389 49.2096704,18.227707 49.4946112,17.4592134 C49.7558069,16.6907198 49.8982773,15.8261646 49.8982773,14.889563 C49.8982773,13.9769769 49.7083167,13.1844679 49.3046507,12.5600669 C48.9009846,11.9116504 48.2123777,11.5754345 47.215085,11.5754345 L45.3629701,11.5754345 L43.0596989,21.0855425 L43.0596989,21.0855425 Z" id="p_2_" fill="#FFFFFF"></path>
                        <path d="M33.2292425,21.0855425 C32.6356159,21.0855425 32.1607146,20.9894808 31.8045386,20.8213728 C31.4721078,20.6532648 31.210912,20.4131106 31.0684417,20.0768947 C30.9259713,19.7646941 30.8784812,19.3804474 30.9022262,18.9481697 C30.9259713,18.5158921 31.0209515,18.0355836 31.1396769,17.5552751 L32.5643807,11.5514191 L37.883275,11.5514191 L38.8568226,7.56485863 L33.5141832,7.56485863 L34.7489266,2.52161954 L29.7624632,3.31412854 L26.6043697,16.810797 C26.343174,17.9155065 26.2007036,18.9721851 26.1532135,19.980833 C26.1057233,20.9894808 26.2719388,21.8540361 26.6043697,22.6465451 C26.9368006,23.4150386 27.5304272,24.0154242 28.3377593,24.4717173 C29.1450915,24.9280104 30.3085996,25.1441492 31.7807936,25.1441492 C32.8018313,25.1441492 33.7041437,25.0480875 34.4639858,24.8799795 C34.535221,24.8559641 34.6539463,24.8319487 34.7251815,24.8079332 L35.6987291,20.7012957 C35.3662982,20.8213728 35.0338673,20.8934191 34.7251815,20.9414499 C34.2502802,21.0375116 33.7516339,21.0855425 33.2292425,21.0855425 L33.2292425,21.0855425 Z" id="t_2_" fill="#FFFFFF"></path>
                        <polygon id="i_bottom_6_" fill="#FFFFFF" points="21.3329655 7.58887406 17.2013244 25.1201337 21.879102 25.1201337 25.986998 7.58887406"></polygon>
                        <polygon id="i_top_2_" fill="#FFFFFF" points="26.4856444 5.57157842 27.1979963 2.52161954 22.5202187 2.52161954 21.8078668 5.57157842"></polygon>
                        <path d="M10.9801177,7.61288948 C11.9774104,7.61288948 12.8559777,7.80501288 13.5920747,8.16524424 C14.3281717,8.5254756 14.9217983,9.00578409 15.4204446,9.63018512 C15.8953459,10.2545861 16.2515219,10.9750489 16.4889725,11.7915733 C16.7264231,12.6080977 16.8451485,13.4966684 16.8451485,14.4572854 C16.8451485,15.9222263 16.5839528,17.2911054 16.0378163,18.6119538 C15.4916798,19.9087867 14.7793279,21.0615271 13.8532704,22.022144 C12.9272129,22.982761 11.83494,23.7512546 10.5764516,24.3036093 C9.31796324,24.8559641 7.9644946,25.1441492 6.49230065,25.1441492 C6.30234014,25.1441492 5.96990924,25.1441492 5.49500797,25.1201337 C5.02010669,25.1201337 4.47397023,25.0721029 3.88034363,24.9760412 C3.26297197,24.8799795 2.62185525,24.7599024 1.95699346,24.5917944 C1.26838661,24.4236864 0.627269892,24.1835322 0.0336432969,23.8953471 L5.4712629,0.792509 L10.339001,0.0240154242 L8.41565081,8.21327509 C8.84306196,8.02115169 9.22298298,7.87705915 9.65039413,7.78099745 C10.0540602,7.66092033 10.5052164,7.61288948 10.9801177,7.61288948 L10.9801177,7.61288948 Z M6.89596673,21.2056196 C7.63206371,21.2056196 8.32067056,21.0375116 8.96178728,20.6532648 C9.602904,20.2930335 10.1727855,19.812725 10.6476868,19.2123394 C11.1225881,18.6119538 11.5025091,17.9155065 11.7637048,17.1710283 C12.0249005,16.4025348 12.1673709,15.6100258 12.1673709,14.7935013 C12.1673709,13.7848535 12.0011554,12.9923445 11.6687246,12.4159743 C11.3362937,11.8396041 10.6476868,11.5754345 9.74537439,11.5754345 C9.46043362,11.5754345 9.15174779,11.5994499 8.67684652,11.719527 C8.20194524,11.8155887 7.79827916,12.055743 7.41835813,12.3919589 L5.37628265,21.1095579 C5.99365431,21.2056196 6.18361482,21.229635 6.34983026,21.229635 C6.46855558,21.2056196 6.65851609,21.2056196 6.89596673,21.2056196 L6.89596673,21.2056196 Z" id="b_2_" fill="#FFFFFF"></path>
                    </g>
                </g>
            </g>
        </g>
    </g>
</svg>