<?xml version="1.0" encoding="UTF-8"?>
<svg width="113px" height="75px" viewBox="0 0 113 75" version="1.1" xmlns="http://www.w3.org/2000/svg" xmlns:xlink="http://www.w3.org/1999/xlink">
    <!-- Generator: Sketch 64 (93537) - https://sketch.com -->
    <title>PayWith-BitPay-Card-DarkMode</title>
    <desc>Created with Sketch.</desc>
    <defs>
        <path d="M0,4.00581045 C0,1.79346243 1.79777584,0 4.00511847,0 L108.994882,0 C111.206847,0 113,1.79833109 113,4.00581045 L113,70.9941896 C113,73.2065376 111.202224,75 108.994882,75 L4.00511847,75 C1.79315262,75 0,73.2016689 0,70.9941896 L0,4.00581045 Z" id="path-1"></path>
    </defs>
    <g id="PayWith-BitPay-Card-DarkMode" stroke="none" stroke-width="1" fill="none" fill-rule="evenodd">
        <g id="Mark/Large/Card/PayWith-BitPay-Card-DarkMode">
            <mask id="mask-2" fill="white">
                <use xlink:href="#path-1"></use>
            </mask>
            <path stroke="#FFFFFF" stroke-width="2" d="M108.994882,1 L4.00511847,1 C3.17656161,1 2.42510288,1.33709685 1.88083559,1.88145818 C1.33710949,2.42527822 1,3.17623059 1,4.00581045 L1,70.9941896 C1,71.8229097 1.33708328,72.5746039 1.88143773,73.1190524 C2.42509385,73.6628024 3.17579404,74 4.00511847,74 L108.994882,74 C109.823438,74 110.574897,73.6629031 111.119164,73.1185418 C111.662891,72.5747218 112,71.8237694 112,70.9941896 L112,4.00581045 C112,3.17709031 111.662917,2.42539612 111.118562,1.88094762 C110.574906,1.33719757 109.824206,1 108.994882,1 Z"></path>
            <g id="Logo/Paywith-Bitpay-vertical-grayscale" mask="url(#mask-2)" fill-rule="evenodd" stroke-width="1">
                <g transform="translate(13.000000, 14.000000)" id="Group-2">
                    <g>
                        <path d="M23.9573152,0.524587304 C24.6391566,0.524587304 25.224642,0.648082648 25.7137891,0.895077065 C26.2029362,1.14207153 26.5734966,1.48414272 26.8254815,1.92130102 C27.0774664,2.35845927 27.2034569,2.86336952 27.2034569,3.43604683 C27.2034569,4.04806841 27.0785251,4.57046473 26.8286578,5.0032514 C26.5787904,5.43603812 26.2114062,5.76499477 25.7264942,5.99013129 C25.2415821,6.21526781 24.6518617,6.32783437 23.9573152,6.32783437 L21.7720456,6.32783437 L21.7720456,10.0720762 L20.5396552,10.0720762 L20.5396552,0.524587304 L23.9573152,0.524587304 Z M23.9573152,5.30488909 C24.6433916,5.30488909 25.15053,5.13877146 25.4787456,4.80653117 C25.8069612,4.47429087 25.9710665,4.02183888 25.9710665,3.44916152 C25.9710665,3.10380649 25.9001307,2.78796438 25.7582568,2.5016257 C25.616383,2.21528702 25.3940467,1.9857824 25.0912414,1.81310488 C24.7884361,1.64042737 24.4104644,1.55408988 23.9573152,1.55408988 L21.7720456,1.55408988 L21.7720456,5.30488909 L23.9573152,5.30488909 Z M33.5072557,8.52454371 C33.5072557,8.77372389 33.5284306,9.03055054 33.570781,9.29503128 C33.6131313,9.55951206 33.6724207,9.78355229 33.7486514,9.96715878 L33.7486514,10.0720762 L32.5099084,10.0720762 C32.4379131,9.90158449 32.3828583,9.65459381 32.3447429,9.33109667 C32.1075806,9.59339164 31.8227788,9.80431733 31.4903281,9.96388011 C31.1578774,10.1234429 30.7926107,10.2032231 30.394517,10.2032231 C29.9371324,10.2032231 29.5316336,10.1103283 29.178008,9.92453604 C28.8243819,9.73874379 28.551226,9.48628867 28.3585317,9.16716316 C28.1658374,8.84803761 28.0694917,8.49394469 28.0694917,8.10487386 C28.0694917,7.60214182 28.1954822,7.17591891 28.4474671,6.8261923 C28.6994519,6.47646569 29.0573074,6.21308179 29.5210445,6.03603265 C29.9847812,5.85898355 30.5321519,5.77046035 31.1631729,5.77046035 L32.319333,5.77046035 L32.319333,5.20652898 C32.319333,4.77374231 32.1954597,4.43385684 31.9477097,4.18686242 C31.6999602,3.939868 31.3431635,3.81637266 30.877309,3.81637266 C30.5935614,3.81637266 30.3394626,3.86773796 30.1150058,3.97047015 C29.8905485,4.07320235 29.7158559,4.21090514 29.590922,4.38358265 C29.4659882,4.55626017 29.4035225,4.74314254 29.4035225,4.94423535 L28.2155998,4.94423535 C28.2155998,4.59888032 28.3299442,4.26445924 28.5586363,3.9409621 C28.7873285,3.61746502 29.1091867,3.35408107 29.5242204,3.1508025 C29.9392545,2.94752388 30.4135718,2.84588613 30.9471866,2.84588613 C31.4553915,2.84588613 31.9011229,2.93440934 32.2843939,3.11145843 C32.667665,3.28850753 32.9672896,3.5551701 33.1832764,3.9114541 C33.3992637,4.26773806 33.5072557,4.70379693 33.5072557,5.21964367 L33.5072557,8.52454371 Z M30.5660352,9.15404847 C30.8370779,9.15404847 31.0901176,9.10486889 31.3251621,9.00650827 C31.5602071,8.90814766 31.7624269,8.77809502 31.9318284,8.61634648 C32.1012303,8.45459789 32.2303968,8.27973724 32.319333,8.09175918 L32.319333,6.62291472 L31.3537484,6.62291472 C30.676142,6.62291472 30.1573576,6.73329553 29.7973793,6.95406047 C29.4374009,7.17482536 29.2574142,7.50159629 29.2574142,7.93438296 C29.2574142,8.16607687 29.308234,8.37372394 29.4098752,8.55733038 C29.5115159,8.74093687 29.65974,8.88628981 29.8545519,8.99339358 C30.0493637,9.10049736 30.2865226,9.15404847 30.5660352,9.15404847 Z M40.2239685,2.97703297 L37.4669713,11.1671523 C37.2975698,11.6436548 37.0530001,12.057856 36.7332544,12.4097684 C36.4135086,12.7616808 35.9783649,12.9376344 35.4278097,12.9376344 C35.3388739,12.9376344 35.2234711,12.9256127 35.0815973,12.901569 C34.9397235,12.8775253 34.8327902,12.8545748 34.7607944,12.8327169 L34.7607944,11.8556731 C34.8073798,11.8644162 34.8603169,11.8720664 34.9196077,11.8786238 C34.978898,11.8851811 35.0318356,11.8884598 35.0784209,11.8884598 C35.4807497,11.8884598 35.7930792,11.8021223 36.0154188,11.6294448 C36.2377583,11.4567673 36.4188037,11.1540397 36.5585598,10.721253 L36.8190137,9.99338816 L34.3669376,2.97703297 L35.6628532,2.97703297 L37.3653311,8.28847941 L38.9598156,2.97703297 L40.2239685,2.97703297 Z M52.6155799,2.97703297 L50.6208859,10.0720762 L49.661654,10.0720762 L47.997292,4.71472839 L46.3710449,10.0720762 L45.411813,10.0720762 L43.4171195,2.97703297 L44.5986894,2.97703297 L45.9454254,8.242578 L47.5399099,2.97703297 L48.4991417,2.97703297 L50.1190361,8.36061015 L51.4403622,2.97703297 L52.6155799,2.97703297 Z M54.2820331,0.393440466 C54.5022549,0.393440466 54.6748304,0.459013214 54.7997637,0.590160699 C54.9246976,0.721308184 54.9871633,0.887425868 54.9871633,1.08851868 C54.9871633,1.2852399 54.9246976,1.44807891 54.7997637,1.57704059 C54.6748304,1.70600226 54.5022549,1.77048215 54.2820331,1.77048215 C54.0618108,1.77048215 53.8913532,1.70600226 53.7706543,1.57704059 C53.6499559,1.44807891 53.5896075,1.2852399 53.5896075,1.08851868 C53.5896075,0.887425868 53.6499559,0.721308184 53.7706543,0.590160699 C53.8913532,0.459013214 54.0618108,0.393440466 54.2820331,0.393440466 Z M53.6785427,10.0720762 L53.6785427,2.97703297 L54.8664654,2.97703297 L54.8664654,10.0720762 L53.6785427,10.0720762 Z M59.4233187,10.0720762 C59.1522766,10.1595079 58.8494756,10.2032231 58.5149077,10.2032231 C58.0363477,10.2032231 57.6520239,10.0545915 57.3619235,9.75732386 C57.0718232,9.46005625 56.9267755,8.97700361 56.9267755,8.30815144 L56.9267755,3.90161809 L55.6753275,3.90161809 L55.6753275,2.97703297 L56.9267755,2.97703297 L56.9267755,1.25245219 L58.1146982,1.25245219 L58.1146982,2.97703297 L59.3979088,2.97703297 L59.3979088,3.90161809 L58.1146982,3.90161809 L58.1146982,8.31470879 C58.1146982,8.65132066 58.182458,8.87754665 58.3179791,8.99339358 C58.4535006,9.10924052 58.6377219,9.16716316 58.8706491,9.16716316 C58.9595849,9.16716316 59.0569891,9.15951301 59.1628653,9.14421246 C59.2687414,9.1289119 59.3534407,9.11251874 59.4169665,9.09503237 L59.4233187,10.0720762 Z M63.7387763,2.84588613 C65.2083351,2.84588613 65.9431034,3.70488925 65.9431034,5.42292124 L65.9431034,10.0720762 L64.7551808,10.0720762 L64.7551808,5.40980655 C64.7551808,4.8677303 64.6418952,4.47429376 64.4153206,4.22948516 C64.1887461,3.9846765 63.8467716,3.86227402 63.3893871,3.86227402 C63.0251738,3.86227402 62.698022,3.96500467 62.4079217,4.17046906 C62.1178213,4.37593344 61.8880743,4.65133902 61.7186724,4.99669406 L61.7186724,10.0720762 L60.5307497,10.0720762 L60.5307497,0 L61.7186724,0 L61.7186724,3.81637266 C61.9685401,3.50599026 62.2649883,3.26664968 62.6080262,3.09834374 C62.9510646,2.93003781 63.3279776,2.84588613 63.7387763,2.84588613 Z" id="Pay-with" fill="#FFFFFF" fill-rule="nonzero" opacity="0.699999988"></path>
                        <g id="Logo/Interface/bitpay-logo-white-(160x58)" transform="translate(0.000000, 15.161290)" fill="#FFFFFF">
                            <g id="Group">
                                <path d="M87.9571732,7.55062368 L83.3833462,7.55062368 L80.7365631,19.0438199 L80.3650848,20.6208489 C80.1096934,20.692532 79.8543021,20.7642151 79.5989107,20.8120039 C79.1345628,20.9075814 78.6469975,20.9553702 78.1362148,20.9553702 C77.5557799,20.9553702 77.091432,20.8597926 76.7431711,20.692532 C76.4181275,20.5252713 76.1627362,20.2863276 76.0234318,19.9518063 C75.8841274,19.6411793 75.8376926,19.2588693 75.86091,18.8287705 C75.8841274,18.3986716 75.976997,17.9207841 76.093084,17.4428965 L77.4861277,11.4693018 L78.3916062,7.50283493 L73.7249096,7.50283493 L71.6121266,16.6782764 C71.3567353,17.7774178 71.2174309,18.8287705 71.1709961,19.8323344 C71.1245613,20.8358983 71.2870831,21.6960959 71.6121266,22.4846104 C71.9371702,23.2492305 72.5176051,23.84659 73.3069965,24.3005832 C74.096388,24.7545764 75.2340404,24.9696258 76.6735189,24.9696258 C77.6718669,24.9696258 78.5541279,24.8740483 79.2970846,24.7067876 C79.320302,24.7067876 79.3667368,24.6828932 79.3899542,24.6828932 L79.3899542,24.6828932 C79.1809976,25.6386684 78.7630845,26.4032885 78.1129974,27.000648 C77.4396929,27.5980075 76.4645623,27.9086344 75.1643882,27.9086344 C74.6071707,27.9086344 74.096388,27.88474 73.63204,27.8130569 L72.7265616,31.7078406 C73.3302139,31.7795237 74.0035184,31.8273125 74.746475,31.8273125 C76.1395188,31.8273125 77.3468234,31.6600518 78.3916062,31.3494249 C79.436389,31.0149036 80.31865,30.537016 81.0848241,29.8679734 C81.8277807,29.1989308 82.4546504,28.3626276 82.9654331,27.382958 C83.4762158,26.3793941 83.8709116,25.2085696 84.1727377,23.8226956 L87.3303035,10.155111 L87.3303035,10.155111 L87.9571732,7.55062368 L87.9571732,7.55062368 Z" id="y_2_"></path>
                                <path d="M68.8028217,17.3712134 C68.524213,18.5659323 68.4313434,19.7845456 68.5474304,20.9792645 C68.6635174,22.1978779 69.1278653,24.037745 69.5689958,24.9696258 L65.1576906,24.9696258 C64.6236905,24.037745 64.6469079,23.5837518 64.5308209,23.2970193 C63.950386,23.7749069 63.3235164,24.1811113 62.6269945,24.4917382 C61.9304726,24.8023651 61.1642986,24.9696258 60.2820375,24.9696258 C59.2604721,24.9696258 58.3782111,24.7784708 57.6584718,24.4200551 C56.9387325,24.0616394 56.3350802,23.5598574 55.8707323,22.9386036 C55.4063844,22.3173498 55.0813409,21.6005184 54.8723843,20.7642151 C54.6634278,19.9279119 54.5705582,19.0438199 54.5705582,18.0880447 C54.5705582,16.6304876 54.8259495,15.268508 55.3135148,13.9782116 C55.8242975,12.6879151 56.5208194,11.5648793 57.4030805,10.6091042 C58.2853415,9.65332901 60.4445593,7.52672931 63.9736034,7.52672931 L71.0549091,7.52672931 L68.8028217,17.3712134 L68.8028217,17.3712134 Z M65.5756037,11.5170906 C63.4396033,11.5170906 63.0449076,11.5170906 62.1626466,11.9710838 C61.5357769,12.3056051 61.0249942,12.807387 60.5838637,13.3808521 C60.1427331,13.9543172 59.7712548,14.6233598 59.5158635,15.3879799 C59.2604721,16.1526 59.1211677,16.9411145 59.1211677,17.7535234 C59.1211677,18.7570873 59.2836895,19.5694962 59.608733,20.1668557 C59.9337766,20.7642151 60.5374289,21.0509477 61.4196899,21.0509477 C61.8840378,21.0509477 62.3251683,20.9553702 62.6966467,20.7642151 C63.068125,20.5730601 63.4860381,20.2624332 63.9039512,19.80844 C63.950386,19.2827637 64.0200382,18.7331929 64.1129078,18.1597278 C64.2057774,17.5862628 64.3218644,17.036692 64.414734,16.5588045 L65.5756037,11.5170906 L65.5756037,11.5170906 Z" id="a_2_"></path>
                                <path d="M53.3168188,14.4560991 C53.3168188,16.0092338 53.0614275,17.4190021 52.5738621,18.7092986 C52.0862968,19.999595 51.389775,21.0987364 50.5075139,22.0306172 C49.6252529,22.962498 48.5804701,23.6793293 47.3499481,24.2050057 C46.1194261,24.730682 44.7960346,24.9935202 43.3565561,24.9935202 C42.6600342,24.9935202 41.9635123,24.921837 41.243773,24.8023651 L39.8507293,30.5609104 L35.2769023,30.5609104 L40.593686,7.57451806 L46.699861,7.57451806 C47.8607308,7.57451806 48.8590788,7.76567309 49.6716877,8.12408877 C50.5075139,8.48250446 51.1808184,8.98428641 51.7380359,9.60554026 C52.272036,10.2267941 52.6667317,10.9675198 52.9221231,11.8038231 C53.2007318,12.616232 53.3168188,13.500324 53.3168188,14.4560991 L53.3168188,14.4560991 Z M42.1028167,20.9792645 C42.4510776,21.0748421 42.8922081,21.0987364 43.4029908,21.0987364 C44.2155997,21.0987364 44.935339,20.9553702 45.6086434,20.6447432 C46.2587305,20.3341163 46.8391654,19.9040175 47.3035133,19.3544468 C47.7678612,18.8048761 48.1161222,18.1358335 48.3947309,17.3712134 C48.6501223,16.6065932 48.7894266,15.7463956 48.7894266,14.8145148 C48.7894266,13.9065284 48.6036875,13.1180139 48.2089918,12.4967601 C47.814296,11.8516119 47.1409915,11.5170906 46.1658609,11.5170906 L44.3549041,11.5170906 L42.1028167,20.9792645 L42.1028167,20.9792645 Z" id="p_2_"></path>
                                <path d="M32.4908149,20.9792645 C31.91038,20.9792645 31.4460321,20.883687 31.0977711,20.7164264 C30.7727276,20.5491657 30.5173362,20.3102219 30.3780319,19.9757006 C30.2387275,19.6650737 30.1922927,19.2827637 30.2155101,18.8526648 C30.2387275,18.422566 30.3315971,17.9446784 30.447684,17.4667909 L31.8407278,11.4931962 L37.0414244,11.4931962 L37.9933376,7.52672931 L32.7694236,7.52672931 L33.9767282,2.50890977 L29.1010751,3.29742427 L26.0131615,16.7260651 C25.7577701,17.8252065 25.6184657,18.8765592 25.5720309,19.8801231 C25.5255962,20.883687 25.6881179,21.7438847 26.0131615,22.5323992 C26.338205,23.2970193 26.9186399,23.8943787 27.7080313,24.3483719 C28.4974228,24.8023651 29.6350752,25.0174145 31.0745537,25.0174145 C32.0729017,25.0174145 32.9551628,24.921837 33.6981194,24.7545764 C33.7677716,24.730682 33.8838586,24.7067876 33.9535108,24.6828932 L34.905424,20.5969545 C34.5803805,20.7164264 34.2553369,20.7881095 33.9535108,20.8358983 C33.4891629,20.9314758 33.0015976,20.9792645 32.4908149,20.9792645 L32.4908149,20.9792645 Z" id="t_2_"></path>
                                <polygon id="i_bottom_6_" points="20.8588996 7.55062368 16.8190728 24.9935202 21.3928997 24.9935202 25.4095092 7.55062368"></polygon>
                                <polygon id="i_top_2_" points="25.8970745 5.54349587 26.5935964 2.50890977 22.0197694 2.50890977 21.3232475 5.54349587"></polygon>
                                <path d="M10.7361151,7.57451806 C11.7112457,7.57451806 12.5702893,7.76567309 13.2900286,8.12408877 C14.0097679,8.48250446 14.5902028,8.96039203 15.0777681,9.58164588 C15.542116,10.2028997 15.8903769,10.9197311 16.1225509,11.73214 C16.3547248,12.5445488 16.4708118,13.4286409 16.4708118,14.384416 C16.4708118,15.8419731 16.2154205,17.2039527 15.6814204,18.5181435 C15.1474203,19.80844 14.4508984,20.9553702 13.54542,21.9111453 C12.6399415,22.8669205 11.5719413,23.6315406 10.3414194,24.1811113 C9.11089739,24.730682 7.78750583,25.0174145 6.3480273,25.0174145 C6.16228813,25.0174145 5.83724459,25.0174145 5.37289668,24.9935202 C4.90854877,24.9935202 4.37454866,24.9457314 3.79411377,24.8501539 C3.19046148,24.7545764 2.5635918,24.6351045 1.91350472,24.4678438 C1.24020024,24.3005832 0.613330561,24.0616394 0.0328956681,23.7749069 L5.34967928,0.788514499 L10.1092454,0.0238943788 L8.22863635,8.17187753 C8.64654947,7.9807225 9.01802781,7.83735623 9.43594093,7.74177871 C9.83063665,7.62230682 10.2717672,7.57451806 10.7361151,7.57451806 L10.7361151,7.57451806 Z M6.74272303,21.0987364 C7.46246229,21.0987364 8.13576677,20.9314758 8.76263645,20.5491657 C9.38950614,20.19075 9.94672363,19.7128625 10.4110715,19.115503 C10.8754195,18.5181435 11.2468978,17.8252065 11.5022891,17.0844808 C11.7576805,16.3198607 11.8969849,15.5313462 11.8969849,14.7189373 C11.8969849,13.7153734 11.7344631,12.9268589 11.4094196,12.3533938 C11.084376,11.7799287 10.4110715,11.5170906 9.52881051,11.5170906 C9.25020176,11.5170906 8.94837562,11.5409849 8.4840277,11.6604568 C8.01967979,11.7560343 7.62498406,11.9949781 7.25350573,12.3294994 L5.2568097,21.0031589 C5.86046199,21.0987364 6.04620116,21.1226308 6.20872293,21.1226308 C6.3248099,21.0987364 6.51054907,21.0987364 6.74272303,21.0987364 L6.74272303,21.0987364 Z" id="b_2_"></path>
                            </g>
                        </g>
                    </g>
                </g>
            </g>
        </g>
    </g>
</svg>