<?xml version="1.0" encoding="UTF-8"?>
<svg width="113px" height="75px" viewBox="0 0 113 75" version="1.1" xmlns="http://www.w3.org/2000/svg" xmlns:xlink="http://www.w3.org/1999/xlink">
    <!-- Generator: Sketch 64 (93537) - https://sketch.com -->
    <title>PayWith-BitPay-Card-GrayScale</title>
    <desc>Created with Sketch.</desc>
    <defs>
        <path d="M0,4.00581045 C0,1.79346243 1.79777584,0 4.00511847,0 L108.994882,0 C111.206847,0 113,1.79833109 113,4.00581045 L113,70.9941896 C113,73.2065376 111.202224,75 108.994882,75 L4.00511847,75 C1.79315262,75 0,73.2016689 0,70.9941896 L0,4.00581045 Z" id="path-1"></path>
    </defs>
    <g id="PayWith-BitPay-Card-GrayScale" stroke="none" stroke-width="1" fill="none" fill-rule="evenodd">
        <g id="Mark/Large/Card/PayWith-BitPay-Card-Alt-Grayscale">
            <mask id="mask-2" fill="white">
                <use xlink:href="#path-1"></use>
            </mask>
            <path stroke="#000000" stroke-width="2" d="M108.994882,1 L4.00511847,1 C3.17656161,1 2.42510288,1.33709685 1.88083559,1.88145818 C1.33710949,2.42527822 1,3.17623059 1,4.00581045 L1,70.9941896 C1,71.8229097 1.33708328,72.5746039 1.88143773,73.1190524 C2.42509385,73.6628024 3.17579404,74 4.00511847,74 L108.994882,74 C109.823438,74 110.574897,73.6629031 111.119164,73.1185418 C111.662891,72.5747218 112,71.8237694 112,70.9941896 L112,4.00581045 C112,3.17709031 111.662917,2.42539612 111.118562,1.88094762 C110.574906,1.33719757 109.824206,1 108.994882,1 Z"></path>
            <g id="Logo/Paywith-Bitpay-vertical-grayscale" mask="url(#mask-2)" fill-rule="evenodd" stroke-width="1">
                <g transform="translate(13.000000, 14.000000)" id="Group-2">
                    <g>
                        <g id="Pay-with-Clipped" transform="translate(20.539655, 0.000000)" fill="#757575" fill-rule="nonzero">
                            <path d="M3.41766001,0.524587304 C4.09950139,0.524587304 4.68498688,0.648082648 5.17413397,0.895077065 C5.66328101,1.14207153 6.03384144,1.48414272 6.28582634,1.92130102 C6.53781118,2.35845927 6.66380173,2.86336952 6.66380173,3.43604683 C6.66380173,4.04806841 6.53886991,4.57046473 6.2890026,5.0032514 C6.03913525,5.43603812 5.67175104,5.76499477 5.18683898,5.99013129 C4.70192697,6.21526781 4.1122065,6.32783437 3.41766001,6.32783437 L1.23239041,6.32783437 L1.23239041,10.0720762 L0,10.0720762 L0,0.524587304 L3.41766001,0.524587304 Z M3.41766001,5.30488909 C4.10373642,5.30488909 4.61087482,5.13877146 4.93909042,4.80653117 C5.26730598,4.47429087 5.43141132,4.02183888 5.43141132,3.44916152 C5.43141132,3.10380649 5.36047548,2.78796438 5.21860163,2.5016257 C5.07672779,2.21528702 4.85439157,1.9857824 4.55158623,1.81310488 C4.2487809,1.64042737 3.87080926,1.55408988 3.41766001,1.55408988 L1.23239041,1.55408988 L1.23239041,5.30488909 L3.41766001,5.30488909 Z M12.9676005,8.52454371 C12.9676005,8.77372389 12.9887754,9.03055054 13.0311258,9.29503128 C13.0734762,9.55951206 13.1327655,9.78355229 13.2089963,9.96715878 L13.2089963,10.0720762 L11.9702532,10.0720762 C11.8982579,9.90158449 11.8432031,9.65459381 11.8050877,9.33109667 C11.5679255,9.59339164 11.2831236,9.80431733 10.9506729,9.96388011 C10.6182222,10.1234429 10.2529555,10.2032231 9.85486181,10.2032231 C9.39747728,10.2032231 8.99197846,10.1103283 8.63835283,9.92453604 C8.28472676,9.73874379 8.01157083,9.48628867 7.81887649,9.16716316 C7.6261822,8.84803761 7.52983648,8.49394469 7.52983648,8.10487386 C7.52983648,7.60214182 7.65582703,7.17591891 7.90781192,6.8261923 C8.15979677,6.47646569 8.51765224,6.21308179 8.9813893,6.03603265 C9.44512608,5.85898355 9.99249677,5.77046035 10.6235178,5.77046035 L11.7796778,5.77046035 L11.7796778,5.20652898 C11.7796778,4.77374231 11.6558045,4.43385684 11.4080545,4.18686242 C11.1603051,3.939868 10.8035084,3.81637266 10.3376539,3.81637266 C10.0539063,3.81637266 9.79980744,3.86773796 9.57535065,3.97047015 C9.35089337,4.07320235 9.1762007,4.21090514 9.05126685,4.38358265 C8.926333,4.55626017 8.86386729,4.74314254 8.86386729,4.94423535 L7.67594464,4.94423535 C7.67594464,4.59888032 7.79028899,4.26445924 8.01898112,3.9409621 C8.24767329,3.61746502 8.56953149,3.35408107 8.98456518,3.1508025 C9.39959935,2.94752388 9.87391661,2.84588613 10.4075314,2.84588613 C10.9157363,2.84588613 11.3614677,2.93440934 11.7447388,3.11145843 C12.1280098,3.28850753 12.4276344,3.5551701 12.6436212,3.9114541 C12.8596085,4.26773806 12.9676005,4.70379693 12.9676005,5.21964367 L12.9676005,8.52454371 Z M10.02638,9.15404847 C10.2974227,9.15404847 10.5504624,9.10486889 10.7855069,9.00650827 C11.0205519,8.90814766 11.2227718,8.77809502 11.3921732,8.61634648 C11.5615752,8.45459789 11.6907416,8.27973724 11.7796778,8.09175918 L11.7796778,6.62291472 L10.8140932,6.62291472 C10.1364869,6.62291472 9.61770246,6.73329553 9.2577241,6.95406047 C8.89774575,7.17482536 8.71775898,7.50159629 8.71775898,7.93438296 C8.71775898,8.16607687 8.76857884,8.37372394 8.87022001,8.55733038 C8.9718607,8.74093687 9.12008481,8.88628981 9.31489669,8.99339358 C9.50970857,9.10049736 9.74686744,9.15404847 10.02638,9.15404847 Z M19.6843134,2.97703297 L16.9273161,11.1671523 C16.7579147,11.6436548 16.5133449,12.057856 16.1935992,12.4097684 C15.8738535,12.7616808 15.4387097,12.9376344 14.8881545,12.9376344 C14.7992188,12.9376344 14.6838159,12.9256127 14.5419421,12.901569 C14.4000683,12.8775253 14.293135,12.8545748 14.2211392,12.8327169 L14.2211392,11.8556731 C14.2677246,11.8644162 14.3206617,11.8720664 14.3799525,11.8786238 C14.4392428,11.8851811 14.4921804,11.8884598 14.5387658,11.8884598 C14.9410945,11.8884598 15.253424,11.8021223 15.4757636,11.6294448 C15.6981031,11.4567673 15.8791485,11.1540397 16.0189046,10.721253 L16.2793586,9.99338816 L13.8272824,2.97703297 L15.123198,2.97703297 L16.8256759,8.28847941 L18.4201604,2.97703297 L19.6843134,2.97703297 Z M32.0759247,2.97703297 L30.0812307,10.0720762 L29.1219988,10.0720762 L27.4576368,4.71472839 L25.8313897,10.0720762 L24.8721578,10.0720762 L22.8774643,2.97703297 L24.0590342,2.97703297 L25.4057702,8.242578 L27.0002547,2.97703297 L27.9594866,2.97703297 L29.579381,8.36061015 L30.900707,2.97703297 L32.0759247,2.97703297 Z M33.742378,0.393440466 C33.9625998,0.393440466 34.1351752,0.459013214 34.2601086,0.590160699 C34.3850424,0.721308184 34.4475081,0.887425868 34.4475081,1.08851868 C34.4475081,1.2852399 34.3850424,1.44807891 34.2601086,1.57704059 C34.1351752,1.70600226 33.9625998,1.77048215 33.742378,1.77048215 C33.5221557,1.77048215 33.351698,1.70600226 33.2309991,1.57704059 C33.1103008,1.44807891 33.0499523,1.2852399 33.0499523,1.08851868 C33.0499523,0.887425868 33.1103008,0.721308184 33.2309991,0.590160699 C33.351698,0.459013214 33.5221557,0.393440466 33.742378,0.393440466 Z M33.1388875,10.0720762 L33.1388875,2.97703297 L34.3268102,2.97703297 L34.3268102,10.0720762 L33.1388875,10.0720762 Z M38.8836636,10.0720762 C38.6126214,10.1595079 38.3098205,10.2032231 37.9752525,10.2032231 C37.4966926,10.2032231 37.1123687,10.0545915 36.8222684,9.75732386 C36.532168,9.46005625 36.3871203,8.97700361 36.3871203,8.30815144 L36.3871203,3.90161809 L35.1356723,3.90161809 L35.1356723,2.97703297 L36.3871203,2.97703297 L36.3871203,1.25245219 L37.575043,1.25245219 L37.575043,2.97703297 L38.8582536,2.97703297 L38.8582536,3.90161809 L37.575043,3.90161809 L37.575043,8.31470879 C37.575043,8.65132066 37.6428028,8.87754665 37.7783239,8.99339358 C37.9138454,9.10924052 38.0980667,9.16716316 38.330994,9.16716316 C38.4199297,9.16716316 38.5173339,9.15951301 38.6232101,9.14421246 C38.7290863,9.1289119 38.8137855,9.11251874 38.8773113,9.09503237 L38.8836636,10.0720762 Z M43.1991211,2.84588613 C44.6686799,2.84588613 45.4034483,3.70488925 45.4034483,5.42292124 L45.4034483,10.0720762 L44.2155256,10.0720762 L44.2155256,5.40980655 C44.2155256,4.8677303 44.10224,4.47429376 43.8756655,4.22948516 C43.6490909,3.9846765 43.3071165,3.86227402 42.8497319,3.86227402 C42.4855186,3.86227402 42.1583668,3.96500467 41.8682665,4.17046906 C41.5781662,4.37593344 41.3484191,4.65133902 41.1790172,4.99669406 L41.1790172,10.0720762 L39.9910945,10.0720762 L39.9910945,0 L41.1790172,0 L41.1790172,3.81637266 C41.4288849,3.50599026 41.7253331,3.26664968 42.068371,3.09834374 C42.4114094,2.93003781 42.7883224,2.84588613 43.1991211,2.84588613 Z" id="Pay-with"></path>
                        </g>
                        <g id="Logo/Interface/bitpay-logo-black-(160x58)" transform="translate(0.000000, 15.161290)" fill="#000000">
                            <g id="Group">
                                <path d="M87.9571732,7.55062368 L83.3833462,7.55062368 L80.7365631,19.0438199 L80.3650848,20.6208489 C80.1096934,20.692532 79.8543021,20.7642151 79.5989107,20.8120039 C79.1345628,20.9075814 78.6469975,20.9553702 78.1362148,20.9553702 C77.5557799,20.9553702 77.091432,20.8597926 76.7431711,20.692532 C76.4181275,20.5252713 76.1627362,20.2863276 76.0234318,19.9518063 C75.8841274,19.6411793 75.8376926,19.2588693 75.86091,18.8287705 C75.8841274,18.3986716 75.976997,17.9207841 76.093084,17.4428965 L77.4861277,11.4693018 L78.3916062,7.50283493 L73.7249096,7.50283493 L71.6121266,16.6782764 C71.3567353,17.7774178 71.2174309,18.8287705 71.1709961,19.8323344 C71.1245613,20.8358983 71.2870831,21.6960959 71.6121266,22.4846104 C71.9371702,23.2492305 72.5176051,23.84659 73.3069965,24.3005832 C74.096388,24.7545764 75.2340404,24.9696258 76.6735189,24.9696258 C77.6718669,24.9696258 78.5541279,24.8740483 79.2970846,24.7067876 C79.320302,24.7067876 79.3667368,24.6828932 79.3899542,24.6828932 L79.3899542,24.6828932 C79.1809976,25.6386684 78.7630845,26.4032885 78.1129974,27.000648 C77.4396929,27.5980075 76.4645623,27.9086344 75.1643882,27.9086344 C74.6071707,27.9086344 74.096388,27.88474 73.63204,27.8130569 L72.7265616,31.7078406 C73.3302139,31.7795237 74.0035184,31.8273125 74.746475,31.8273125 C76.1395188,31.8273125 77.3468234,31.6600518 78.3916062,31.3494249 C79.436389,31.0149036 80.31865,30.537016 81.0848241,29.8679734 C81.8277807,29.1989308 82.4546504,28.3626276 82.9654331,27.382958 C83.4762158,26.3793941 83.8709116,25.2085696 84.1727377,23.8226956 L87.3303035,10.155111 L87.3303035,10.155111 L87.9571732,7.55062368 L87.9571732,7.55062368 Z" id="y_2_"></path>
                                <path d="M68.8028217,17.3712134 C68.524213,18.5659323 68.4313434,19.7845456 68.5474304,20.9792645 C68.6635174,22.1978779 69.1278653,24.037745 69.5689958,24.9696258 L65.1576906,24.9696258 C64.6236905,24.037745 64.6469079,23.5837518 64.5308209,23.2970193 C63.950386,23.7749069 63.3235164,24.1811113 62.6269945,24.4917382 C61.9304726,24.8023651 61.1642986,24.9696258 60.2820375,24.9696258 C59.2604721,24.9696258 58.3782111,24.7784708 57.6584718,24.4200551 C56.9387325,24.0616394 56.3350802,23.5598574 55.8707323,22.9386036 C55.4063844,22.3173498 55.0813409,21.6005184 54.8723843,20.7642151 C54.6634278,19.9279119 54.5705582,19.0438199 54.5705582,18.0880447 C54.5705582,16.6304876 54.8259495,15.268508 55.3135148,13.9782116 C55.8242975,12.6879151 56.5208194,11.5648793 57.4030805,10.6091042 C58.2853415,9.65332901 60.4445593,7.52672931 63.9736034,7.52672931 L71.0549091,7.52672931 L68.8028217,17.3712134 L68.8028217,17.3712134 Z M65.5756037,11.5170906 C63.4396033,11.5170906 63.0449076,11.5170906 62.1626466,11.9710838 C61.5357769,12.3056051 61.0249942,12.807387 60.5838637,13.3808521 C60.1427331,13.9543172 59.7712548,14.6233598 59.5158635,15.3879799 C59.2604721,16.1526 59.1211677,16.9411145 59.1211677,17.7535234 C59.1211677,18.7570873 59.2836895,19.5694962 59.608733,20.1668557 C59.9337766,20.7642151 60.5374289,21.0509477 61.4196899,21.0509477 C61.8840378,21.0509477 62.3251683,20.9553702 62.6966467,20.7642151 C63.068125,20.5730601 63.4860381,20.2624332 63.9039512,19.80844 C63.950386,19.2827637 64.0200382,18.7331929 64.1129078,18.1597278 C64.2057774,17.5862628 64.3218644,17.036692 64.414734,16.5588045 L65.5756037,11.5170906 L65.5756037,11.5170906 Z" id="a_2_"></path>
                                <path d="M53.3168188,14.4560991 C53.3168188,16.0092338 53.0614275,17.4190021 52.5738621,18.7092986 C52.0862968,19.999595 51.389775,21.0987364 50.5075139,22.0306172 C49.6252529,22.962498 48.5804701,23.6793293 47.3499481,24.2050057 C46.1194261,24.730682 44.7960346,24.9935202 43.3565561,24.9935202 C42.6600342,24.9935202 41.9635123,24.921837 41.243773,24.8023651 L39.8507293,30.5609104 L35.2769023,30.5609104 L40.593686,7.57451806 L46.699861,7.57451806 C47.8607308,7.57451806 48.8590788,7.76567309 49.6716877,8.12408877 C50.5075139,8.48250446 51.1808184,8.98428641 51.7380359,9.60554026 C52.272036,10.2267941 52.6667317,10.9675198 52.9221231,11.8038231 C53.2007318,12.616232 53.3168188,13.500324 53.3168188,14.4560991 L53.3168188,14.4560991 Z M42.1028167,20.9792645 C42.4510776,21.0748421 42.8922081,21.0987364 43.4029908,21.0987364 C44.2155997,21.0987364 44.935339,20.9553702 45.6086434,20.6447432 C46.2587305,20.3341163 46.8391654,19.9040175 47.3035133,19.3544468 C47.7678612,18.8048761 48.1161222,18.1358335 48.3947309,17.3712134 C48.6501223,16.6065932 48.7894266,15.7463956 48.7894266,14.8145148 C48.7894266,13.9065284 48.6036875,13.1180139 48.2089918,12.4967601 C47.814296,11.8516119 47.1409915,11.5170906 46.1658609,11.5170906 L44.3549041,11.5170906 L42.1028167,20.9792645 L42.1028167,20.9792645 Z" id="p_2_"></path>
                                <path d="M32.4908149,20.9792645 C31.91038,20.9792645 31.4460321,20.883687 31.0977711,20.7164264 C30.7727276,20.5491657 30.5173362,20.3102219 30.3780319,19.9757006 C30.2387275,19.6650737 30.1922927,19.2827637 30.2155101,18.8526648 C30.2387275,18.422566 30.3315971,17.9446784 30.447684,17.4667909 L31.8407278,11.4931962 L37.0414244,11.4931962 L37.9933376,7.52672931 L32.7694236,7.52672931 L33.9767282,2.50890977 L29.1010751,3.29742427 L26.0131615,16.7260651 C25.7577701,17.8252065 25.6184657,18.8765592 25.5720309,19.8801231 C25.5255962,20.883687 25.6881179,21.7438847 26.0131615,22.5323992 C26.338205,23.2970193 26.9186399,23.8943787 27.7080313,24.3483719 C28.4974228,24.8023651 29.6350752,25.0174145 31.0745537,25.0174145 C32.0729017,25.0174145 32.9551628,24.921837 33.6981194,24.7545764 C33.7677716,24.730682 33.8838586,24.7067876 33.9535108,24.6828932 L34.905424,20.5969545 C34.5803805,20.7164264 34.2553369,20.7881095 33.9535108,20.8358983 C33.4891629,20.9314758 33.0015976,20.9792645 32.4908149,20.9792645 L32.4908149,20.9792645 Z" id="t_2_"></path>
                                <polygon id="i_bottom_6_" points="20.8588996 7.55062368 16.8190728 24.9935202 21.3928997 24.9935202 25.4095092 7.55062368"></polygon>
                                <polygon id="i_top_2_" points="25.8970745 5.54349587 26.5935964 2.50890977 22.0197694 2.50890977 21.3232475 5.54349587"></polygon>
                                <path d="M10.7361151,7.57451806 C11.7112457,7.57451806 12.5702893,7.76567309 13.2900286,8.12408877 C14.0097679,8.48250446 14.5902028,8.96039203 15.0777681,9.58164588 C15.542116,10.2028997 15.8903769,10.9197311 16.1225509,11.73214 C16.3547248,12.5445488 16.4708118,13.4286409 16.4708118,14.384416 C16.4708118,15.8419731 16.2154205,17.2039527 15.6814204,18.5181435 C15.1474203,19.80844 14.4508984,20.9553702 13.54542,21.9111453 C12.6399415,22.8669205 11.5719413,23.6315406 10.3414194,24.1811113 C9.11089739,24.730682 7.78750583,25.0174145 6.3480273,25.0174145 C6.16228813,25.0174145 5.83724459,25.0174145 5.37289668,24.9935202 C4.90854877,24.9935202 4.37454866,24.9457314 3.79411377,24.8501539 C3.19046148,24.7545764 2.5635918,24.6351045 1.91350472,24.4678438 C1.24020024,24.3005832 0.613330561,24.0616394 0.0328956681,23.7749069 L5.34967928,0.788514499 L10.1092454,0.0238943788 L8.22863635,8.17187753 C8.64654947,7.9807225 9.01802781,7.83735623 9.43594093,7.74177871 C9.83063665,7.62230682 10.2717672,7.57451806 10.7361151,7.57451806 L10.7361151,7.57451806 Z M6.74272303,21.0987364 C7.46246229,21.0987364 8.13576677,20.9314758 8.76263645,20.5491657 C9.38950614,20.19075 9.94672363,19.7128625 10.4110715,19.115503 C10.8754195,18.5181435 11.2468978,17.8252065 11.5022891,17.0844808 C11.7576805,16.3198607 11.8969849,15.5313462 11.8969849,14.7189373 C11.8969849,13.7153734 11.7344631,12.9268589 11.4094196,12.3533938 C11.084376,11.7799287 10.4110715,11.5170906 9.52881051,11.5170906 C9.25020176,11.5170906 8.94837562,11.5409849 8.4840277,11.6604568 C8.01967979,11.7560343 7.62498406,11.9949781 7.25350573,12.3294994 L5.2568097,21.0031589 C5.86046199,21.0987364 6.04620116,21.1226308 6.20872293,21.1226308 C6.3248099,21.0987364 6.51054907,21.0987364 6.74272303,21.0987364 L6.74272303,21.0987364 Z" id="b_2_"></path>
                            </g>
                        </g>
                    </g>
                </g>
            </g>
        </g>
    </g>
</svg>